<?xml version="1.0" encoding="UTF-8" standalone="no"?>
<!DOCTYPE svg PUBLIC "-//W3C//DTD SVG 1.1//EN" "http://www.w3.org/Graphics/SVG/1.1/DTD/svg11.dtd">
<svg xmlns="http://www.w3.org/2000/svg" version="1.1" viewBox="0 0 1602 1308">
<path fill="#353336" d="M 745.9 1141.5 C 745.7 1143.5 745.9 1144.8 744.6 1146.4 C 739.9 1152.2 733.8 1158.9 726.6 1161.6 Q 719.6 1164.3 714.3 1165.5 Q 696.5 1169.3 671.6 1173.4 C 650.6 1176.8 630.5 1181.8 610.3 1188.5 Q 607.3 1189.4 598.2 1194 Q 595 1195.5 596.1 1199 Q 600.2 1211.5 604 1224.1 C 608.1 1237.4 608.5 1249.1 605.2 1262.2 C 598.8 1288.2 573.2 1296.8 549.7 1300.2 C 522 1304.2 495 1306.5 467.8 1306.7 Q 442.2 1306.9 417 1302.7 Q 406.1 1300.8 395.6 1297.4 Q 393.1 1296.6 391.1 1294.9 Q 390.7 1294.6 390.6 1294.1 Q 387.9 1282.9 394 1273.3 Q 394.3 1272.9 395.3 1272.3 Q 395.9 1272 396.8 1271.8 Q 423.4 1267.7 433.5 1265.7 Q 462.4 1260.3 486.2 1244.7 Q 490.3 1241.9 494.4 1237.6 Q 496.1 1235.8 496.1 1233.9 C 496.2 1229.2 491.6 1223.1 488.8 1220 Q 479.4 1209.6 470.1 1199.2 C 462.3 1190.6 454.2 1178.9 453.5 1167.1 Q 452.9 1155.8 455.6 1145 C 459.2 1130.2 467.4 1122.8 482.3 1120 Q 498.4 1117 514.5 1113.5 Q 528.8 1110.4 538.3 1098.5 C 542 1093.8 542.1 1089.1 541.4 1082.8 C 540.6 1074.8 540.3 1064.1 538.7 1054 C 537.8 1048 537.3 1042.1 535.9 1036.1 Q 533.4 1025.2 532.3 1014 Q 532.3 1013.5 531.7 1013.5 C 527.2 1013.2 524.7 1016.7 520.2 1013.9 C 518.1 1012.5 517.1 1011.8 514.5 1012.3 Q 509.3 1013.3 504.7 1010.7 C 502.6 1009.6 501.6 1009.6 499.5 1010.2 C 496.9 1011 494.5 1010.2 492.4 1008.6 A 1.9 1.8 -20.9 0 0 491.6 1008.2 C 485.4 1007.4 478.3 1006.7 474.3 1001.3 A 0.8 0.8 68.1 0 0 473.6 1001 L 469.6 1001.5 Q 469.2 1001.5 468.8 1001.4 Q 464 999.7 459.4 998 C 455.7 996.6 453 993.4 449.6 991.2 Q 448.1 990.3 445.7 990 Q 438.9 989.2 433.9 984.8 Q 432.1 983.1 429.9 981.9 C 427.2 980.3 425.5 978.1 422.6 976.9 C 415.8 973.8 410.6 966.6 403.6 962.4 Q 399.2 959.7 395.8 955.9 C 392.6 952.4 389 951.2 387.4 946.3 A 0.6 0.6 0 0 0 386.2 946.4 C 385.8 949.9 385.6 953 384.3 956.3 Q 380.6 965.8 376.9 975.2 C 369.7 993.3 357.5 1004 340.8 1013.6 C 319.6 1025.8 293.5 1031 269.3 1026.3 Q 263.4 1025.2 257.6 1023.8 C 235.7 1018.6 219.7 1006.3 207.2 988.1 Q 206.8 987.6 206.5 988.1 C 199 1000.8 189.4 1014.2 178 1023.1 C 159.8 1037.4 137.4 1043.7 114.3 1040.9 C 85.4 1037.4 59 1025.4 38.9 1004 C 19.2 983.2 4 954.6 1.3 925.6 Q -1.1 900.9 5.2 875.5 Q 16.1 831.6 46.2 799.9 Q 46.5 799.5 46.5 799 C 46.3 797.4 45.2 795.3 44.9 794.2 Q 38.1 771 36.5 750 Q 33.6 713.1 41.8 676.5 Q 47.4 651.5 61.4 630.8 C 72.9 613.7 91.4 600.4 110.3 592.5 Q 133.9 582.7 159 580.8 C 194.2 578.2 224.2 598.5 242.9 626.8 Q 243.2 627.2 243.4 626.7 C 245 620.9 246.1 614.2 247.8 609.2 Q 252.4 594.5 261.4 579.4 C 270.1 564.8 281.6 553.9 297.9 548.7 Q 326.6 539.5 354.9 549.5 C 373.5 556.1 385.8 569.8 395.5 586.5 Q 401.6 596.9 405.4 608.3 A 0.5 0.5 -22.3 0 0 406.1 608.6 L 416.5 603.4 A 0.9 0.9 84 0 0 417 602.8 C 418.1 598 420.9 597.1 424.9 595.3 Q 427.5 594.1 429.7 592.4 Q 436 587.7 443.4 584.9 C 446 583.9 448.4 584.6 450.7 582.3 Q 455.4 577.4 462.5 577.5 A 1.4 1.4 -65.7 0 0 463.4 577.1 Q 466 574.7 469.4 573.9 C 472.7 573.1 474.9 571.2 478 570 A 1.3 1.3 -51.5 0 1 478.7 569.9 L 482.2 570.4 Q 482.8 570.5 483.1 570 C 486.2 565.3 498 566.4 503.3 565.4 Q 505 565.1 509.1 563.4 Q 515.1 561 521.6 561.7 Q 525.9 562.2 528 562 C 532.8 561.5 538 559.9 542.3 559.7 Q 546.4 559.5 548.5 560.6 Q 554.3 563.6 549.6 559 Q 528.2 538.1 513.6 511.1 C 503.3 492 494.2 471.9 491.9 450 C 490.3 434.2 493 415.6 501 401.8 Q 508.5 388.9 520.3 381.3 Q 530.1 374.9 545.3 371.5 Q 566.8 366.6 593.3 368.2 Q 632.9 370.5 671.7 378.2 Q 683.5 380.6 691.4 381.9 C 710.6 385.2 729.7 389.2 748.9 392.2 Q 779.8 397.1 790.3 398.5 C 800.7 399.9 813.4 401.5 824.5 400.6 C 836.2 399.7 850.9 398 855.2 384.9 C 858.2 375.7 855.3 368.3 848.8 361.1 C 841.9 353.4 835 348.6 825.1 341.7 C 807.2 329.2 786.5 319.5 766.5 311.2 C 752.5 305.4 738.3 299.3 724.2 294.3 C 680.6 278.9 636.1 266.4 591.9 253 Q 507.5 227.3 461.5 210.9 Q 411.1 193 362.1 171.1 Q 326.8 155.3 298.2 133.8 C 284.9 123.9 276.2 107.5 278.2 90 Q 279.5 78.3 285.2 68.4 C 292.7 55.3 306.9 46.2 320.8 40.1 Q 346.4 28.9 370.3 22.7 Q 401.7 14.5 425 11 Q 443.5 8.3 477.8 5.9 C 502 4.2 526.4 3.5 550.8 2.3 Q 567.6 1.5 617.9 2 Q 628.2 2.1 637.9 2.7 Q 709.4 7.1 767.2 16.3 Q 821.4 24.9 855.7 32.3 C 878.5 37.2 901.5 41.8 924.2 47.4 Q 980.2 61.1 1035 79 C 1073 91.4 1105.7 106 1140.6 124.1 Q 1150.1 129.1 1158.1 133.8 C 1200.5 159.1 1239.4 188.8 1276.8 220.9 Q 1330.4 267 1361.6 328.1 Q 1374.4 353.2 1381.4 382.5 C 1386.8 405.3 1384.6 428.8 1377.8 451.3 C 1374 463.7 1368.7 473.4 1360.2 483.7 C 1346.4 500.3 1329.6 514 1309.2 522 Q 1302.3 524.7 1295.6 526.6 C 1275.5 532.5 1255 536.7 1234.1 538.6 C 1226.8 539.3 1219.5 540.3 1212.3 540.6 C 1186.1 541.8 1164.1 543.9 1133.7 545.5 Q 1124 546 1113.8 545.9 C 1083.5 545.7 1057.5 545.4 1029 547.7 C 1007.4 549.4 985.9 548.8 964.4 551.3 C 956.7 552.3 941.9 555 939.1 563.2 A 1.5 1.4 -45.7 0 0 939.1 564.1 Q 942.3 574.5 946.9 580.9 C 958.9 597.5 969.8 608.4 981.6 622.2 Q 1008.3 653.3 1010.4 694.5 Q 1010.9 702.7 1007.2 715.1 Q 1007 715.6 1007.5 715.7 Q 1011.1 716.6 1014.8 717.3 C 1019.5 718 1022.4 720.4 1027.7 719.1 Q 1028.1 719 1028.6 719.2 C 1032.2 720.6 1033.8 723.1 1038 720.5 A 1.7 1.7 -59.3 0 1 1039 720.3 Q 1041.5 720.4 1043.8 721.4 Q 1049 723.7 1054.3 725.6 C 1057.7 726.8 1059.3 729.2 1063.8 728.7 Q 1064.2 728.7 1064.7 728.9 Q 1067.4 730.5 1071.7 731.2 Q 1076.3 731.9 1081.2 735.1 C 1084.5 737.2 1087.9 737.8 1090.9 740.7 A 1.7 1.7 73.7 0 0 1091.8 741.2 C 1096.2 742.3 1098.8 742.3 1101.8 746.1 Q 1102.2 746.5 1102.7 746.7 Q 1110.5 749.3 1115.8 755.6 A 1.9 1.9 61.1 0 0 1117.8 756.2 C 1121 755.1 1124.1 759.9 1126.7 761.4 C 1131.6 764.4 1135.4 768 1140.3 770.8 Q 1142.7 772.3 1144.7 774.3 Q 1150.1 779.9 1156.7 784 Q 1157.1 784.2 1157.4 784.7 Q 1159.5 788.5 1163.2 790.8 C 1166 792.5 1167.2 793.7 1167.6 796.9 A 1.6 1.6 -71 0 0 1168.1 797.8 C 1172.3 802.2 1177.7 806 1181.8 811.1 C 1184.5 814.5 1188 817.8 1189.8 820.4 Q 1192.1 823.7 1193.6 825.7 Q 1195.7 828.4 1196.7 830.7 Q 1199.1 836.3 1201.8 841.8 A 1.4 1.4 -0.4 0 0 1202.5 842.5 Q 1208 844.9 1210.5 850.2 Q 1211.5 852.4 1212.7 853.8 C 1215.5 857.2 1216.5 862.4 1217.7 866.4 A 0.5 0.5 0 0 0 1218.6 866.3 C 1218.6 863 1220.1 860.9 1220.4 857.9 Q 1220.8 854.1 1221.9 852.7 C 1225.2 849 1225.9 844.8 1228.2 840.8 C 1230 837.6 1231.2 833.8 1233.3 831 C 1234.5 829.4 1235.8 828.1 1236.8 826.3 Q 1239.9 820.8 1245.3 816.3 Q 1255.6 807.8 1266.5 802.6 Q 1279.8 796.3 1294.1 793.1 Q 1295.7 792.7 1300.5 792.2 C 1303.6 791.9 1306.1 791 1309.2 791.1 C 1313.1 791.2 1316.8 790.4 1320.6 790.8 Q 1324.3 791.1 1328 791.2 C 1329.7 791.3 1330.9 792.3 1332.4 792.4 C 1337.5 792.8 1341.7 794.7 1346.7 795.7 C 1349.1 796.1 1351.1 797.3 1353.2 797.9 Q 1362 800.2 1368.8 804.5 C 1379.1 811 1387.7 817.7 1394.2 827.7 C 1396.4 831 1399.2 833.8 1401.2 837 Q 1402.2 838.5 1403.1 837 C 1405.4 833 1407.3 829.7 1410.6 826.2 C 1413.6 823.1 1416.2 819.5 1419.2 816.7 Q 1423.8 812.4 1428.5 808.3 Q 1431.4 805.7 1444.4 798.9 Q 1448.3 796.9 1460.5 793.6 C 1464.3 792.5 1468.6 792.4 1472.8 791.5 Q 1475.4 790.9 1478.2 791 C 1481.8 791.2 1484.8 790.5 1488.4 791.5 C 1491.1 792.2 1494.4 792.4 1496.5 792.8 Q 1508.8 795.2 1517.5 798.7 C 1535.1 805.9 1548.6 813.5 1560.3 825.6 Q 1584.5 850.6 1595.2 883.6 C 1596.2 886.7 1596.8 890.2 1597.8 893.5 C 1598.8 897.2 1598.7 900.8 1599.5 904.6 C 1600.4 908.8 1599.9 912.8 1601.1 917.1 Q 1601.2 917.6 1601.1 918.1 Q 1600 922.9 1600.8 927.8 Q 1601 928.9 1600 930.4 A 1.6 1.6 62.7 0 0 1599.7 931.3 Q 1599.7 942.7 1597.9 949 Q 1591.7 971 1587.6 981 Q 1585.9 985.1 1578 999.2 Q 1569.2 1014.8 1554.8 1029.9 C 1552.2 1032.6 1548 1035.4 1545.1 1038.9 Q 1544.8 1039.3 1544.9 1039.8 Q 1545.3 1045.6 1547.5 1051 Q 1547.9 1052 1547.3 1054 A 1.6 1.5 44.1 0 0 1547.4 1055 C 1549.5 1061 1548.8 1064.8 1549.6 1070.2 Q 1550 1072.6 1550 1076 C 1549.9 1079 1551.7 1083.3 1550.3 1086 Q 1550.1 1086.4 1550.2 1086.8 L 1551 1093.8 A 1.8 1.7 54.1 0 1 1550.9 1094.7 Q 1550.7 1095.2 1550.5 1095.7 Q 1550.3 1096.1 1550.3 1096.5 Q 1550.3 1100.6 1550.4 1104.7 C 1550.4 1105.5 1549.6 1106.5 1549.6 1107.6 Q 1549.5 1114.8 1548 1124 Q 1545.3 1140.8 1540.2 1158.4 C 1532.3 1185.8 1517.1 1211 1492.9 1226.4 Q 1484.1 1232 1472.1 1237.5 C 1469.1 1238.9 1465.6 1239.2 1462.3 1240.5 C 1458.8 1242 1455.6 1242.3 1452.1 1243.5 C 1448.5 1244.8 1444.9 1244.6 1441.2 1245.7 Q 1438.8 1246.3 1436.2 1246.4 C 1432.8 1246.5 1429.9 1247.7 1426.4 1247.4 C 1422.4 1247.2 1418.8 1247.9 1414.8 1247.7 C 1411.9 1247.4 1409.1 1247.9 1406.4 1247.5 Q 1392.6 1245.4 1379.8 1240 Q 1376.3 1238.5 1372.6 1235.9 C 1364.1 1229.9 1356.4 1224.3 1349.4 1216.6 Q 1342.2 1208.7 1334.2 1194.4 Q 1333.7 1193.7 1333.7 1194.5 C 1333.5 1198 1331.8 1200.8 1331 1203.5 Q 1327.8 1214.7 1322 1224.8 C 1314.5 1238 1306 1249.8 1293.8 1258.9 C 1290.6 1261.3 1286.9 1262.6 1283.2 1264.5 Q 1280.6 1265.7 1277.3 1266.5 C 1273.9 1267.3 1271.4 1268.6 1267.8 1268.8 Q 1264.2 1269 1260.6 1269.7 C 1258.5 1270.1 1256.9 1269.3 1254.9 1269.6 Q 1251 1270.1 1247.2 1269.6 C 1243.7 1269.1 1240.2 1269.6 1237.1 1268.5 C 1233.3 1267.2 1229.4 1267 1225.8 1265.6 C 1222.2 1264.2 1218.4 1263.2 1215.1 1261.6 Q 1199.5 1254 1189.1 1239.9 Q 1185.6 1235.2 1178.9 1221.7 Q 1177.6 1219.1 1176 1214.6 C 1174.9 1211.3 1173.4 1208.6 1172.6 1205 Q 1171.6 1200.8 1169.7 1196.8 A 1.4 1.4 0 0 1 1169.5 1196 Q 1170.2 1191.7 1167.1 1188.8 Q 1167.1 1188.7 1167.1 1188.8 L 1167 1189.2 Q 1167 1189.3 1167 1189.3 Q 1164.6 1191.6 1163.2 1194.5 Q 1162.2 1196.5 1160.8 1197.6 Q 1151.7 1205.1 1147.8 1207.6 Q 1139.3 1213 1134.3 1217.6 Q 1132.5 1219.2 1130.3 1220.3 Q 1125.6 1222.5 1121.7 1225.8 C 1116.3 1230.3 1114.2 1232.5 1108 1232.6 A 2.1 2.1 7 0 0 1106 1234.1 C 1104.4 1239.8 1100.2 1240.6 1094.7 1240.9 Q 1094.1 1240.9 1093.8 1241.4 C 1091.2 1246.5 1082.9 1248 1075.5 1250.5 C 1072.6 1251.5 1070.4 1253.8 1067.6 1254.5 C 1062.9 1255.7 1059.4 1257.4 1054.5 1257.3 C 1051.5 1257.2 1046.4 1260.1 1043.7 1261.5 C 1041.6 1262.6 1040.1 1262.6 1037.8 1262.3 A 1.5 1.5 -52.1 0 0 1037 1262.4 C 1033.1 1264.1 1028.8 1263.9 1025.4 1264.7 Q 1020.3 1266 1015.2 1267.1 Q 1014.7 1267.2 1014.2 1267 Q 1011 1266 1008.2 1267.9 A 1.5 1.4 31.2 0 1 1007.2 1268.2 L 1002.9 1267.5 A 1 1 -57.5 0 0 1002.2 1267.6 Q 998.4 1270.3 994.8 1267.5 Q 994.4 1267.2 994 1267.3 Q 988.7 1268.4 983.6 1269.8 C 980.1 1270.8 978 1269.1 974.8 1270 Q 967.5 1272 960.6 1268.8 Q 960.2 1268.6 959.7 1268.6 Q 951.8 1269.3 944.1 1268.1 C 941.8 1267.7 938.1 1268.2 935.3 1267 C 931.8 1265.5 928.8 1265.7 925.5 1263.6 Q 925.1 1263.3 924.6 1263.3 Q 919.1 1263.4 911.6 1261.4 C 908.1 1260.5 903.6 1260.6 899.6 1259.3 Q 890.4 1256.2 881.4 1252.2 C 880.2 1251.7 880 1251.3 879.2 1250.4 Q 878.9 1250 878.4 1249.9 Q 871.3 1249.1 864.7 1246.4 C 861.7 1245.1 858.8 1242.5 855.4 1241 C 851.9 1239.7 849.6 1237.4 846.3 1236 Q 844.3 1235.1 842.8 1233.7 Q 838.1 1229.4 832.1 1227.3 C 825.2 1225 820.5 1219 814.3 1215.3 Q 811.9 1213.8 809.8 1212 Q 803.9 1206.7 797.6 1201.8 C 793.1 1198.3 789.5 1194.2 785.5 1190.3 C 783.9 1188.7 783.4 1186.6 781.8 1185.1 Q 771.1 1175.5 764.5 1167.8 C 763.3 1166.4 762.5 1164.1 760.8 1162.5 Q 755 1157 751.8 1149.8 A 1.7 1.7 3.8 0 0 751.1 1149.1 Q 746.8 1146.5 746.3 1141.5 A 0.2 0.2 0 0 0 745.9 1141.5 Z M 962.4 714.7 Q 962.2 714.7 962 714.8 Q 960.9 715.3 962 715.3 C 963.3 715.4 964.6 715.3 965.9 714.7 C 970.3 712.7 973.8 715.3 978.8 714.5 C 982.3 713.9 984.6 714.1 987.5 715.7 A 0.9 0.9 22.4 0 0 988.8 715.1 Q 990.6 709 993.5 703.2 C 995.8 698.6 994.6 694.9 993.6 689.8 Q 991.9 681 989.6 674 C 986.4 664.4 979.8 654.3 973.4 646.3 C 957.9 626.6 936.7 608.9 927.2 584.7 Q 923.3 574.6 923.2 566.4 C 923.1 554.1 927.7 539 939.8 533.6 Q 948.9 529.5 956 528.3 C 979.6 524.2 1005.5 525.5 1030.2 523.4 Q 1056.5 521.2 1065.5 521.2 C 1099.1 521 1131 522 1166.3 519.1 C 1191.5 517 1219.4 516.2 1237.8 514 Q 1267 510.6 1295.1 502.1 C 1318.7 495 1335.8 480.9 1352 462.2 Q 1364.9 447.2 1368.2 425 Q 1370.4 410.2 1367.5 397.3 Q 1362.5 375 1351.6 351.7 C 1332.8 311.6 1303.8 275.8 1271.5 246.9 Q 1266.9 242.8 1256.3 233.8 C 1231.8 213.1 1206.2 193.1 1179.4 175.4 C 1132.6 144.5 1081.2 119.8 1027.8 102.5 Q 990.8 90.6 953.3 80.6 C 938.4 76.6 923.5 72.3 908.7 69 Q 846.6 55 783.9 44 C 765.7 40.9 747.2 38.5 728.9 35.9 Q 718.5 34.5 709.1 33.4 Q 661.1 28.1 631 26.7 C 587.2 24.7 536.4 27.2 487.5 29.5 Q 465.4 30.5 435.7 34 Q 424.7 35.3 415.9 36.9 Q 375.8 44.2 337.6 58.5 Q 327.5 62.3 320.1 66.1 C 312.6 69.9 288.7 85.6 294.8 96.5 Q 300.4 106.5 310.3 113.5 Q 344.9 137.8 383.9 154.2 C 418.3 168.7 453 182.4 488.7 194.1 Q 580.6 224.3 663 248.4 Q 718.4 264.6 771.7 286.6 C 797.8 297.4 825.7 311.6 848.5 329.7 C 863.1 341.2 872 354.9 871.7 374 C 871.3 393.4 866.3 416.1 844.7 421.9 Q 824.9 427.1 801.8 424.5 Q 751.6 418.9 702.2 408.8 C 690.9 406.4 678.6 404.7 666.3 402.2 Q 625.4 394.1 583.8 392.7 C 564.9 392.1 539.4 393.6 523.8 406.2 C 513.7 414.4 507 424.9 507.1 438.5 C 507.2 443.6 508.8 452.5 510.8 458.4 Q 528.5 510.4 569.5 546.6 C 576 552.3 584.2 557.4 591.6 562.6 C 594.1 564.4 597.6 568.3 601.6 569.7 C 604 570.5 614.6 571.9 616.4 575 A 2.3 2.3 69.1 0 0 618.8 576.1 C 622.8 575.3 624.9 577.6 628.2 578.6 C 631.8 579.7 634 582.9 637 583.6 Q 641.4 584.5 644.1 586.3 C 648.6 589.2 653.4 591.7 658 594.4 Q 658.3 594.5 661.7 597 Q 663.2 598.2 665.6 599.4 C 669.5 601.4 673.1 606.9 678 609.4 Q 684.1 612.5 688 618.3 A 1.6 1.6 84 0 0 688.8 618.9 C 691 619.8 691.9 620.5 693.1 622.9 Q 694.7 626.1 698.5 626.7 A 1.3 1.3 76.9 0 1 699.4 627.3 C 701.6 630.3 702.1 633.4 705.6 635.9 C 707.9 637.5 708.9 639 710.2 641.1 Q 710.5 641.6 710.9 641.8 Q 714 643.3 715.2 645.1 Q 723.1 656.6 730.9 668.3 Q 731.7 669.5 732.1 672.8 Q 732.2 673.3 732.6 673.6 C 736.8 675.9 738.6 680.1 740.4 684.3 C 741.7 687.5 742 691.5 743.6 695.1 C 744.6 697.5 747.5 699.9 748 702.4 Q 748.8 707.1 751.4 709.4 C 752 710 752.7 711.5 752.8 712.3 Q 753.5 719 757.3 724.6 A 1.5 1.4 31.5 0 1 757.6 725.5 Q 757.2 730.4 759.7 734.7 A 0.4 0.3 38 0 1 759.8 734.9 L 759.7 740 A 1.1 1.1 -70.6 0 0 760.1 740.8 Q 763.1 743.3 761.8 746.8 A 1.5 1.5 -46.3 0 0 761.8 747.9 Q 762.8 750.4 762.7 753.1 C 762.6 756 763.4 757.4 764.6 759.7 A 1.7 1.7 0 0 1 764.7 760.7 Q 764.2 764.8 765 768.7 C 765.8 772.7 766.6 776.6 766.3 779.3 C 765.5 785.3 765.1 792.2 766.4 798.2 C 767.2 801.9 764 805.5 764.5 808.5 Q 765.3 814.1 764.3 819.1 Q 763.9 821.4 765.5 819.8 C 767.8 817.4 770.1 815.7 771.8 812.5 Q 775.7 805.6 780 802.5 Q 784 799.6 786 797.5 C 788.4 794.9 790.8 793.5 792.6 790.3 Q 794.4 787.1 797.2 785.2 Q 803 781.3 806.9 777.5 C 808.3 776.1 809.7 776 811.4 775 Q 812.7 774.3 814 772.4 Q 816.9 768.1 821.4 765.5 C 824.5 763.7 826 765.2 828.3 761.4 C 830.2 758.4 834.1 757.5 836.9 755.5 Q 840 753.4 842.2 752.2 C 846.1 750.1 849.1 746.9 852.9 745.4 Q 856.9 743.8 861.1 742.9 Q 861.7 742.8 862 742.4 Q 864.4 739.5 868.3 739.3 A 1.3 1.3 26.9 0 0 868.9 739.1 C 874.4 735.7 877.9 733.1 885.1 732.4 Q 889.6 731.9 893.3 728.5 C 894.8 727.1 896.2 726.1 897.9 727.2 A 1.3 1.3 0 0 0 899.6 726.9 Q 902.4 723.2 906.9 724.3 A 0.6 0.5 37.6 0 0 907.2 724.3 L 916.9 720.9 Q 917.4 720.8 918 721 Q 921 722.2 922.5 721.2 Q 928.8 717.1 935.9 718.6 C 938.8 719.3 939.3 718.9 941 716.7 C 942.8 714.2 947.8 715.1 950.7 715.3 Q 951.2 715.3 951.5 715.7 Q 952.4 716.6 953.5 716.7 Q 954 716.8 954.4 716.5 Q 957.2 714.2 961.5 714.1 Q 962.1 714.1 962.5 714.3 Q 962.8 714.6 962.4 714.7 Z M 325.2 830.9 Q 325.3 831 325.4 831.2 Q 325.5 831.5 325.8 831.4 L 326.1 831.3 A 0.3 0.3 0 0 0 326.2 830.9 C 324.9 828.8 323.4 826.9 322.9 824.5 Q 321.7 819.6 320.7 814.8 C 320 811.5 322.9 810 322.3 807.2 Q 322.2 806.7 321.8 806.4 C 318.2 803.4 319.7 797.1 319.6 793.1 C 319.6 788.6 320.3 785 321 780.8 A 2.1 2 -52.2 0 0 320.9 779.8 Q 319.3 775.4 321.4 771.5 Q 321.6 771 321.5 770.5 L 320.7 766.2 Q 320.6 765.6 320.9 765.2 C 324.1 760.5 318.7 757.3 322.7 753.5 A 2 2 58 0 0 323.2 751.3 C 321.9 747.9 324.4 740.6 326 737.4 Q 328.1 733.3 328.4 728.7 Q 328.6 724.5 329.1 722.7 Q 331.5 713.7 335.4 705.1 A 1.8 1.8 0 0 1 335.9 704.4 Q 340.1 701.6 340.7 696.5 A 1.5 1.5 -13 0 1 341.4 695.4 Q 344.5 693.5 343.1 690 A 1.3 1.3 -38.5 0 1 343.2 688.8 Q 346.5 684.2 347.9 678.8 A 1.7 1.7 76.6 0 1 348.4 677.9 Q 352.1 674.6 353.8 672 C 354.6 670.8 353.7 669.3 354 668 Q 354.5 665 357.4 665.1 A 2.4 2.4 -85.5 0 0 359.8 663 L 360.3 659.4 Q 360.4 658.7 360.9 658.3 C 365.3 655.1 365.7 652.8 368 648.2 Q 369.1 645.9 371.1 643.8 Q 375.9 638.4 380.3 632.6 C 381.6 630.8 383.6 629.8 385.1 628 C 386.6 626.3 387.6 625.9 389.7 625.4 Q 390.2 625.2 390.4 624.8 C 391.9 620.9 388.4 614.1 386.2 610.1 C 381.3 601.6 375.4 592.2 368.6 585.8 C 352.8 570.9 328.5 566.3 307.7 570.8 C 285.7 575.6 274 591.6 264.9 610.8 Q 260.8 619.5 258.9 629 C 257.7 635.1 257.7 643 256.6 649.9 A 5.6 5.6 37.3 0 0 257.1 653 C 265.9 672.7 271.4 693.8 275.5 714.9 Q 277.1 723 278.4 734.7 C 280.1 749 282 763 282.7 777.7 Q 283.9 801.8 286.3 825.8 Q 286.7 829.6 284.3 840.5 Q 284.1 841 283.6 841.1 L 274.2 842.3 A 0.7 0.7 -19 0 1 273.5 841.9 Q 271.4 838.3 271 835.3 Q 268.6 813.9 267.4 787.5 C 266.5 770.6 264.5 754.6 262.4 738.2 Q 261 727.4 259.1 718.4 C 250.3 676.3 232.5 630.4 191.2 611.4 Q 175.9 604.4 160.3 605.2 Q 142.7 606.2 124 612.4 C 102.7 619.6 82.5 633.3 69.9 652.1 Q 60.9 665.7 57.2 680 Q 43.6 733.3 61 785.3 A 0.6 0.6 0 0 0 61.9 785.5 Q 79 771.2 99.9 763 Q 112.1 758.2 123.7 758.2 C 137.3 758.3 149.2 758.7 162.2 762.8 C 173.1 766.2 186.6 773.7 189.3 785.6 Q 189.9 787.8 189.3 790.9 Q 188.4 795.7 188.1 800.5 A 0.7 0.7 88 0 1 187.5 801.1 L 179.1 802.3 A 2.1 2.1 0 0 1 177.1 801.4 C 164.4 783.3 136.3 781.2 116.5 782.8 Q 112.7 783.1 106.3 785.8 Q 84.4 794.9 68.8 808.1 Q 66.5 810.1 65.6 813 Q 65.5 813.5 65 813.6 Q 60.8 814.8 57.1 818.8 C 49.4 827.4 42.6 834.5 36.9 843.5 Q 23.3 865 18 890 C 15.6 901.9 15.5 912.7 17.8 924.2 Q 21.7 943.9 32.3 960.9 Q 62 1008.6 116.6 1016.5 Q 127.7 1018.1 136.5 1016.7 C 174.6 1010.5 196.4 974.7 208.7 941.5 Q 217.3 918 221.5 896.7 C 225.5 876.1 227.7 855.5 227.7 834.5 Q 227.7 812.5 227.7 790.5 C 227.7 777.9 226.7 765.2 226 752.5 Q 225.5 744.1 230.7 735.9 Q 231 735.5 231.4 735.3 Q 237 733.1 239.1 738.1 C 239.9 739.8 241.2 742.5 241.3 743.8 C 243.8 775.2 243.4 797.8 243 836.2 C 242.6 879.1 234.3 921.5 219.1 961.5 C 218.2 963.9 216.5 965 218.3 967.7 Q 235.4 993.8 266.3 1000.4 C 276.1 1002.4 284.8 1004.5 295.5 1003.3 Q 319.9 1000.7 340.1 987.4 C 347.9 982.3 354 977.7 359 970.6 Q 362.3 965.9 367.3 953.8 Q 370.9 944.9 374.5 935.9 A 1.6 1.6 50.9 0 0 374.5 935 C 373.4 929.5 370.7 927.4 367.5 923.8 C 365 921 362.9 917 360.1 913.9 Q 358 911.5 356.7 909.4 C 353.2 903.8 348.9 900.4 348.4 893.4 A 1.4 1.4 -77.6 0 0 347.7 892.3 C 343.3 889.9 341.5 883.5 339.5 879.3 C 337.9 875.8 338 872.3 335.1 869 A 1.7 1.7 21.4 0 1 334.6 868 Q 334 862.9 331.2 858.5 Q 330.1 856.7 329.8 854.8 Q 328.8 848.8 326.9 843.1 C 325.5 839 325 835.4 324.3 831.3 A 0.5 0.5 18.9 0 1 325.2 830.9 Z M 521.8 598.3 L 522.7 599.1 Q 523.1 599.4 523.5 599.4 Q 528.8 599.4 531.3 598.8 Q 534.5 598.1 538.8 599.5 Q 542.1 600.6 547 600.2 Q 549.2 600 551.4 600.5 C 554.8 601.4 557.7 601.1 561.1 602.3 Q 565.5 603.9 570.9 603.7 Q 571.7 603.7 571.6 602.9 Q 571.5 598.6 571.6 594.3 C 571.6 592.6 570.9 590.5 572.1 588.5 A 0.9 0.9 0 0 0 571.4 587.1 Q 564.5 587 557.7 586 C 552.3 585.3 547.8 585.3 542.6 585.5 A 1 1 -28.1 0 1 542.1 585.4 L 539.9 583.9 Q 539.5 583.7 539.1 583.8 Q 532.9 585.7 526.5 584.9 A 1.9 1.9 0 0 0 525.5 585.1 Q 520.5 587.2 515.2 586.7 Q 513.2 586.6 511.4 587.1 Q 507.6 588.4 503.7 588.9 C 496.2 589.8 489.4 594 481.6 595.2 A 0.8 0.8 81.4 0 0 480.9 596.1 L 482.2 604.2 Q 482.3 604.8 482.8 604.6 L 487.3 603 A 0.7 0.7 53.3 0 1 487.9 603.1 Q 489.7 604.4 491.4 603.1 Q 491.7 602.8 492.1 602.7 L 496.3 601.9 A 1 0.9 53.1 0 1 497 602 C 499.2 603.3 502.4 601.6 504.5 600.8 C 508 599.4 510.9 599.6 514.4 599.1 C 516.5 598.8 518.5 599.6 520.8 598.2 A 0.8 0.8 -39.7 0 1 521.8 598.3 Z M 631.3 636 Q 634.6 629.5 638.7 623.9 C 641 620.8 643.6 618.8 644.7 614.4 A 0.6 0.6 -80.5 0 0 644.2 613.7 L 642.4 613.5 Q 642 613.5 641.6 613.2 Q 637.8 610.8 633.9 608.6 C 630.1 606.4 624.8 604.8 620.5 602.1 Q 617.6 600.3 615.1 599.5 C 610 597.9 605.9 596.8 600.5 594.2 Q 593.9 590.9 586.5 590.1 C 583.6 589.8 581.3 588.2 578.4 587.9 A 0.9 0.9 4.6 0 0 577.4 588.7 Q 577.1 595.4 577 601.8 C 576.9 603 576.5 604.6 577.7 605.6 C 579.8 607.4 583.1 607.4 585.4 608.5 C 591 611.2 596.5 612.6 602 616.5 Q 604 617.9 606.8 619 Q 611.9 620.9 616.1 624.4 C 621.2 628.6 627.3 630 630.7 636 Q 631 636.6 631.3 636 Z M 450.1 617.3 Q 454.9 615.8 457.9 613.5 Q 458.3 613.2 458.8 613.1 C 462.7 612.7 465.3 610.7 468.6 609.7 C 472.1 608.7 473.8 607.4 476.5 605.5 Q 477 605.1 476.8 604.6 Q 475.7 601.8 476.4 598.9 A 0.8 0.8 0 0 0 475.3 598 Q 471.9 599.2 468.4 600.5 C 462.8 602.5 457.4 605.5 451.9 608 C 441.7 612.6 432.3 620.1 423.3 626.9 Q 416.1 632.3 410.3 639.4 A 1 1 55.5 0 0 410.1 640.3 L 411.4 644.1 A 1.4 1.4 0 0 0 413.8 644.5 Q 421 636.6 429.4 631 Q 434.4 627.6 439.3 624.2 C 442.1 622.3 445.9 618.7 450.1 617.3 Z M 459.8 884.5 C 463.4 885.6 467.2 887.4 471.2 888.2 A 1.9 1.8 -16.8 0 1 472 888.7 Q 475.9 892.3 481 891.6 C 483.5 891.3 485.3 892.9 487.8 893.1 Q 491.2 893.3 494.6 894.4 C 497.7 895.3 500.5 894.6 503.7 895.7 C 507.3 896.9 509.4 896.7 512.6 895.5 A 1.5 1.5 -47.1 0 1 513.6 895.4 C 515.4 895.9 516.5 896.4 518.4 896.3 Q 531.7 895.5 545 894 Q 549 893.5 553.4 892.4 C 559.7 890.8 565.4 889.6 571.3 886.9 Q 578.2 883.6 585.3 880.5 Q 590.4 878.3 603.1 870.1 C 610 865.7 615.3 859.3 621.7 854.4 Q 625.8 851.3 627.5 849.2 Q 629.6 846.5 632.5 842.2 C 633.9 840 636.8 838.5 638.4 835.6 Q 642.1 828.8 646.1 822.2 C 650 815.9 652.7 808.9 656.2 802.2 Q 659 796.9 660 793.8 C 661.7 788.2 661.6 782.1 664.8 777 Q 665.1 776.6 665 776.1 C 664.4 774.2 664.3 773 665.1 771 Q 666.8 766.7 666 762.1 Q 665.9 761.6 666 761.1 C 668.2 755.7 666.6 751.6 667.7 746.5 C 668.2 744.2 667.9 742.6 667.6 740.4 C 667.2 737.2 667.7 733.9 667 730.5 C 666.5 727.8 667 724.4 666.5 722.5 Q 665 717.2 663.9 711.8 C 663.2 708.2 661.4 704 661.1 699.7 Q 661 697.2 656.9 690 Q 656.6 689.5 656.6 689 Q 656.4 686.1 654.4 683.1 C 651.2 678.7 647.9 671.5 643.5 666.1 C 640.7 662.8 639 659 635.8 656.1 C 632.6 653.3 629.3 649.2 626.8 647 Q 617.8 638.8 607.5 632.3 C 604.2 630.2 600.2 628.3 596.5 626.2 C 592 623.6 587 622.5 582.5 619.6 Q 580.8 618.5 578.8 618.2 Q 573.1 617.2 568 614.4 A 1.5 1.5 -32.6 0 0 567.1 614.2 Q 562.9 614.6 559 613.3 Q 556.2 612.3 554.3 612.2 Q 546.3 611.7 538.3 610.7 Q 535.1 610.3 531.2 610.5 C 526.3 610.9 521.4 610.2 516.8 610.5 Q 513.6 610.7 510.4 610.9 C 506.6 611.2 502.9 612.7 498.9 613.3 C 495.1 613.8 491.6 615.4 487.1 614.5 A 1.2 1.2 -56.8 0 0 486.2 614.7 Q 483.3 616.9 479.9 617.3 Q 477.3 617.6 475.8 618.4 Q 462.9 624.7 456.8 626.6 Q 452 628.1 448.8 630.7 Q 445 633.8 444.3 634.3 C 419.4 650.7 398.6 673.8 386.1 700.9 C 382.8 708 380.3 716.4 377.7 724.4 C 376.4 728.5 376 732.8 375 737.2 C 374.2 740.9 374.5 744.9 373.4 748.9 Q 372.5 752.3 372.5 754.7 Q 372.4 759.9 372.1 765.1 C 371.8 770.2 372.9 774.6 373.8 779.4 Q 374 780.3 374.4 784.7 C 374.6 788.2 376.6 790.5 376.9 793.8 Q 377.7 801.2 379.5 805 C 383.2 812.5 386.3 820.5 390.9 827.5 C 393.3 831.2 394.8 835 398 838.3 Q 402.5 842.8 405.8 848.2 A 1.9 1.8 88 0 0 406.5 848.9 Q 408.5 850 409.5 851 Q 415.8 857.3 422.3 863.5 Q 425.1 866.2 428.8 868.3 C 439.5 874.4 448.3 881 459.8 884.5 Z M 638.8 633.7 C 637.8 635.1 636.2 637.5 635.8 639.2 Q 635.7 639.7 636.1 640 C 637.1 640.6 637.9 641.1 638.6 642 Q 642.1 646.3 646 650.3 C 648.5 652.9 649.7 656.1 652.2 658.8 Q 655 662 656.1 663.8 Q 661.9 673.4 667.1 683.5 C 667.7 684.6 667.6 685.5 667.6 686.7 A 1.1 1.1 0 0 0 669.3 687.6 L 699.2 667.2 Q 699.6 666.9 699.5 666.5 C 697.1 656.6 689.7 653.2 683.3 646.8 C 677.9 641.5 671.4 636.5 666.6 630.6 C 662.4 625.3 656.1 622.5 650.2 619 Q 649 618.2 648.5 619.6 Q 648.3 620.2 647.5 621.4 Q 643.1 627.5 638.8 633.7 Z M 385.4 677.8 C 388.6 673.1 391.6 668.6 395.4 664.2 Q 401.5 656.8 407.7 649.2 A 1.4 1.4 45.2 0 0 407.7 647.5 Q 406.2 645.6 406.2 643.3 Q 406.2 642.4 405.6 643 Q 396.5 652.4 388 662.2 Q 384.3 666.5 381 672.1 Q 375.6 681 370 689.9 A 1.9 1.9 0 0 0 370.7 692.5 L 375.6 695.2 Q 376.1 695.4 376.2 694.9 C 376.5 694 376.6 693 377 692.3 C 380 687.5 382.5 682.2 385.4 677.8 Z M 706.9 719.8 L 708.4 727.9 A 1.1 1.1 12.2 0 0 708.9 728.7 Q 710.3 729.6 712 729.2 Q 716.2 728 720.5 727.6 C 724.2 727.3 727.3 725.8 731 725.6 A 0.7 0.7 85.1 0 0 731.6 724.8 Q 731.1 719.9 728.6 715.9 C 725.7 711.4 724.2 708.1 722.1 703.9 C 720.9 701.4 720.8 698.7 719.9 695.9 Q 719 693.5 716.7 690.7 Q 709.3 681.5 703.5 671.1 Q 703.2 670.6 702.8 670.9 Q 698.8 674.4 696.3 676 Q 683.7 684.1 671.4 692.8 Q 670.8 693.1 671.1 693.8 L 672.8 698.3 A 0.5 0.5 46.4 0 1 672.8 698.6 Q 672 701 672.4 702 Q 674.4 707.2 676.3 712.4 C 676.8 713.8 676.1 715.3 676.6 717 Q 677.7 720.2 678 723.6 Q 678 724.1 678.4 723.9 C 682.3 722.1 686.4 721.8 690.5 720.5 Q 693.8 719.4 697.4 719.4 Q 697.8 719.4 698.2 719.1 Q 702.3 716.3 706.4 719 Q 706.8 719.3 706.9 719.8 Z M 362 746.7 C 362.4 745.1 363.8 743.5 363.2 741.2 A 2 2 44.4 0 1 363.1 740.2 Q 363.8 737.5 364.1 734.8 Q 364.4 732.4 365.3 729.4 C 366.4 726.3 366.5 722.9 367.5 719.9 Q 369.3 714.2 370.6 708.3 C 371.2 705.8 372.5 704 373.7 701.7 A 1.6 1.6 0 0 0 372.6 699.5 Q 370.2 698.9 368.6 697 A 1.4 1.4 0 0 0 366.3 697.2 C 362.3 705.1 360 713.5 354.2 720.1 A 1.4 1.4 64.4 0 0 353.9 721 Q 354.1 728 353.5 729.7 Q 347 747.1 345.4 761.7 Q 345.1 764.1 347.4 766.2 A 1.1 1.1 -25.9 0 0 348.3 766.5 C 352.7 766.1 355.9 768.8 360.4 768.3 Q 360.9 768.3 360.9 767.8 Q 361.5 763 360.5 758.4 A 1.3 1.3 -33.6 0 1 360.8 757.4 Q 362.2 755.2 361.8 752.8 C 361.4 750.2 361.5 748.9 362 746.7 Z M 706.6 748.7 L 702.2 747.6 A 0.5 0.5 0 0 0 701.8 747.6 C 698.5 749.5 693.5 748.9 689.6 750.1 C 685.4 751.4 682.3 751.1 678.1 750.9 A 0.6 0.6 78.9 0 0 677.5 751.7 L 679.2 755.2 A 0.7 0.7 48.8 0 1 679.2 755.9 L 678 757.8 A 1.3 1.3 -37.9 0 0 677.9 758.8 Q 678.5 761.2 677 763 Q 676.7 763.3 676.8 763.8 L 677.4 767.7 A 1.7 1.6 50.2 0 1 677.4 768.6 L 675.1 774.9 A 3.2 3.2 23.9 0 0 676.6 778.8 Q 689.9 785.9 703.9 792.8 Q 706.3 793.9 707 795.5 C 708.6 798.9 706.1 806.8 705.4 810.6 A 0.6 0.5 10.2 0 0 705.8 811.2 C 707.2 811.4 708.7 811.5 709.9 812 Q 721.1 816.8 732.6 821 Q 733.1 821.2 733.5 821.6 Q 735 823.2 737.3 823.2 A 1.4 1.4 0 0 0 738.6 822 C 739.3 818.2 741 814.8 741 810.9 C 740.9 804.8 741.6 799.1 741 792.7 Q 740.6 787.9 741.4 783.1 Q 742 779.8 741.7 777.3 Q 740.5 765 737.7 753 C 737 750.1 737.3 747.2 736.4 744.1 Q 734.7 737.8 734.2 731.1 Q 734.1 730.5 733.5 730.6 L 710.1 734.7 Q 709.7 734.8 709.8 735.2 Q 710 739.1 711.2 742.9 A 0.4 0.4 0 0 1 711.1 743.3 L 707.5 748.3 Q 707.2 748.8 706.6 748.7 Z M 1012.2 795.1 Q 1014.2 795.3 1016.1 794.5 A 1.3 1.3 -47.7 0 1 1017 794.5 L 1020 795.3 A 1.1 1.1 0 0 0 1021.3 794.3 Q 1021.4 791.1 1021.7 787.7 C 1022.2 783.8 1021.3 779.6 1022.2 775.4 A 2.3 2.2 -48.6 0 0 1022.1 774.3 Q 1021.3 771.6 1022.3 769 Q 1022.5 768.5 1022.4 767.9 Q 1022.1 765.8 1022.4 763.8 C 1022.9 760.8 1022.6 758.9 1022.6 756.1 C 1022.5 754.1 1023.7 752.2 1022.8 749.6 A 1.6 1.6 41.8 0 1 1022.7 748.8 Q 1023.3 746.3 1023 743.8 Q 1022.9 743.2 1022.5 742.9 Q 1016.8 739.7 1011.7 739.8 Q 1000.2 740.1 991.7 737.7 A 1.8 1.8 45.3 0 0 990.8 737.7 Q 984.3 739.5 977.9 738 Q 975.6 737.4 973.6 737.7 C 969 738.4 964.8 739.1 959.9 739.3 Q 946.2 739.8 942 740.4 C 936.2 741.2 929.4 744.2 922.6 745 Q 918.3 745.4 913.9 746.9 A 0.7 0.7 60.6 0 0 913.6 748 C 915.8 750.6 916.3 754 917.8 756.7 Q 924.2 768 929.7 779.7 Q 930.9 782.1 932.4 786.5 C 934.9 793.3 939.7 797.7 941.5 804.7 A 1.4 1.4 -17.5 0 0 943.3 805.6 L 955.1 801.1 Q 955.6 801 956 801.1 Q 958.9 802.5 959.8 804.2 Q 962.1 808.3 965.4 816.3 C 969.8 827.2 974.5 837.1 979.1 847.6 Q 979.9 849.3 981.8 850.5 Q 982.2 850.8 982.7 850.7 L 1008.8 849.1 Q 1009.4 849.1 1009.3 848.6 Q 1008.8 845.2 1009 841.9 C 1009.1 839.3 1008.5 837 1008.6 834.3 Q 1008.9 828.7 1008.9 828.7 Q 1008.5 810.9 1008.9 799.3 Q 1009 796.9 1011.1 795.4 Q 1011.6 795 1012.2 795.1 Z M 1027.9 776.7 Q 1026.2 778.5 1027.6 780.7 A 1 1 0 0 1 1027.7 781.7 Q 1026.9 783.3 1027.6 784.9 A 0.7 0.6 37.5 0 1 1027.7 785.2 L 1026.5 794.3 Q 1026.4 795.7 1027.8 795.7 L 1037.1 795.7 Q 1037.6 795.7 1038 796 Q 1040.9 798.8 1040.7 801.3 Q 1039.6 814 1039.7 826.8 C 1039.7 829.1 1039.3 831.2 1039.3 833.4 Q 1039.4 840.9 1039.3 848.5 Q 1039.3 848.9 1039.1 849.2 L 1038.7 850 Q 1038.3 850.7 1039 850.8 Q 1048.6 852 1058.2 853.9 C 1060.3 854.3 1062 855.7 1064.4 856 C 1071.4 856.9 1078.2 859.2 1084.9 861.3 Q 1085.3 861.4 1085.5 861 Q 1090.9 841.4 1096.8 822 C 1097.5 819.7 1098.6 817.5 1099.2 815.3 Q 1102.2 803.3 1106 791.6 Q 1106.2 791 1107 786.9 C 1107.5 784 1109.8 781.1 1108.9 778.1 Q 1108.7 777.6 1108.3 777.4 Q 1095.8 771 1089.4 767.3 C 1086.7 765.8 1084.9 763.1 1081.6 762 C 1077.5 760.7 1071 758.6 1068.9 754.5 Q 1068.7 754 1068.1 754.1 Q 1063.4 754.5 1060.2 753.5 Q 1055.3 752.1 1047.4 748.9 Q 1045 747.9 1040.9 746.9 C 1037 746 1033.5 744.4 1029.7 743.5 A 1.2 1.1 5.1 0 0 1028.3 744.6 C 1028.6 750.3 1028 756 1028.2 761.8 C 1028.3 763.6 1027.5 765.5 1028.2 767.8 A 1.3 1.3 50.4 0 1 1028.1 768.8 Q 1026.3 772.1 1028 775.5 A 1 1 0 0 1 1027.9 776.7 Z M 927 811.9 L 937 808.4 Q 937.5 808.2 937.3 807.8 C 935.6 804.4 935 801.4 932.7 798.3 C 928.8 792.7 926.6 785.7 924 780.6 Q 921.1 775.1 918.4 769.5 C 916.3 764.9 912.1 758.5 910 752.3 Q 909.5 750.9 907.2 749.7 Q 906.8 749.5 906.3 749.6 C 899.6 751.1 894.2 754.3 887.8 756.4 Q 882.5 758.1 878 761.3 C 872.6 765 865.6 766.3 859.7 768.8 Q 858 769.5 856.3 771.4 Q 852.5 775.3 847.2 776.8 C 845.8 777.2 844.1 778.6 843.1 779.6 Q 838.8 784.3 830.7 789.9 Q 829 791.1 823.7 795.8 Q 823.3 796.1 823.6 796.4 L 901.8 879.2 A 1.9 1.9 0 0 0 903.9 879.7 C 908.6 877.6 913.5 874.2 917.1 872.3 Q 928.8 866.2 939.7 861.9 C 942.8 860.7 947 860.8 949.8 858.3 A 0.7 0.7 0 0 0 949.9 857.5 C 948.6 855.1 946.6 853.9 945.4 851.5 C 942 844.7 937 837.6 933.7 832 Q 929.6 824.8 925.1 817.7 Q 924.8 817.2 925 816.6 L 926.2 812.8 A 1.3 1.3 89.1 0 1 927 811.9 Z M 363 787.7 Q 362.5 786 362.1 784.3 Q 361.9 783.7 362.2 783.2 L 362.9 781.7 Q 363.1 781.2 362.9 780.8 Q 361.6 778 361.5 774.9 A 1 1 10.9 0 0 360.9 774 Q 359.8 773.5 358.6 773.9 A 1.1 1 -43.8 0 1 357.9 773.9 Q 351.8 771.8 345.5 770.9 Q 345.1 770.8 345.1 771.2 Q 344.5 778.9 343.7 786.5 C 343.1 791.5 344.5 796.8 344.6 802.2 C 344.7 805.7 346 808.8 345.7 812.5 C 345.4 816.5 347.9 821.1 348.4 824.5 Q 349.7 833.2 351.5 841.9 C 351.9 844 352.9 846 353.7 847.9 Q 354.3 849.4 355.5 848.3 Q 357.9 846.2 360.4 844.5 Q 363 842.6 365.1 840.5 Q 370.1 835.6 376.1 831.9 Q 377.1 831.2 378 829 Q 378.2 828.5 378 828 Q 375.6 823.5 373.7 818.8 Q 372.6 816.1 370.7 813.1 Q 368.3 809.5 368.1 807.2 Q 367.5 802.3 365.8 797.6 Q 365.6 797.1 365.7 796.6 C 366.7 792.1 364.1 791.3 363 787.7 Z M 1128 883.8 Q 1133.8 888 1139.8 891.9 Q 1141 892.8 1142.6 895.1 C 1144.3 897.8 1146.3 899.4 1148.6 901.3 Q 1149 901.6 1149.3 901.1 L 1179.6 849.7 A 2.4 2.3 -44.4 0 0 1179.6 847.4 C 1178.1 844.8 1176.8 842.5 1174.6 840.3 Q 1167.9 833.7 1162.5 826 C 1158.2 819.8 1152.1 814.8 1146.9 809.1 C 1143.8 805.8 1139.4 802.4 1136.7 800.1 Q 1127.3 791.9 1117.8 783.7 Q 1117.1 783 1114.7 782.3 Q 1114.3 782.2 1114.2 782.5 L 1090.3 863.6 Q 1090.2 864.2 1090.7 864.4 L 1100.2 868.2 Q 1100.7 868.4 1101.1 868.8 L 1103.3 871 Q 1103.7 871.5 1104.2 871.4 Q 1107.8 870.8 1110.5 872.6 Q 1113 874.2 1121.4 880.6 C 1123.5 882.2 1125.8 882.2 1128 883.8 Z M 791.3 897.5 L 793.8 897.2 Q 794.4 897.1 794.9 897.5 L 846.7 931.3 Q 847.1 931.6 847.5 931.2 Q 852.1 925 857.6 919.6 Q 860.1 917.3 862.5 914 Q 868.2 906.1 876.2 900.5 C 878.3 899.1 879.4 897.7 881 896 C 883.4 893.3 886.8 891.8 889.6 889.3 C 892.1 887.1 895 885.6 897.7 883.5 A 0.6 0.6 0 0 0 897.8 882.7 Q 869.8 853.6 842.3 824.1 C 836.9 818.4 827.1 808.7 820.3 800.3 Q 819.7 799.7 819.1 800.2 Q 803 813.3 790.4 828.9 C 783 838.2 778 844.2 772 851.9 C 768.8 856.1 766.5 860.8 763.8 865.4 C 759.9 871.9 756.6 879.4 752.5 886.2 A 2.5 2.5 0 0 0 753.6 889.8 C 755.1 890.5 756.4 890.7 757.8 891.9 C 761.1 894.6 764.9 895.5 768.3 898.3 C 771.6 901.1 776 902.8 779.7 905.3 C 781 906.2 782.6 906.7 784 907.4 Q 784.5 907.7 784.9 907.3 C 786.6 905.3 786.9 902.8 788.4 900.9 Q 789.5 899.5 790.5 898 Q 790.8 897.6 791.3 897.5 Z M 696.9 915.4 L 702.2 907 A 0.8 0.8 8.2 0 1 702.6 906.7 Q 706.5 905.7 708.4 902.7 C 710 900 709.6 895.7 711.9 892.6 Q 716.2 886.6 717.7 882.4 Q 718.9 879 720.7 875.9 C 722 873.6 725.2 871.3 725.8 868.3 Q 727.2 861.5 729.5 856.9 C 731.2 853.5 731.4 849.9 732.7 846.4 Q 735.5 838.7 736.9 831 A 2 2 0 0 0 735.7 828.8 L 704.9 816 A 1.5 1.5 0 0 0 702.9 817 L 701.6 823.3 A 1.4 1.4 -13.8 0 1 701.1 824.1 C 696 828.3 692.5 824 687.5 822.9 Q 684.9 822.3 684 821.9 Q 676.5 818.5 668.5 816.2 C 666.2 815.6 664.4 813.3 661.4 815.6 A 0.9 0.9 70.9 0 0 661 816.3 L 661 819.4 Q 661 819.8 660.8 820.2 Q 653.8 832 646.4 843.5 C 643.9 847.3 640.2 850.5 637.4 854.3 A 2 2 -49.5 0 0 637.6 856.9 C 641.9 861.1 646 865.8 650.2 869.7 Q 668.6 887.1 686.6 905.2 Q 688.5 907.1 693.3 911.3 C 694.7 912.5 695.2 913.7 696 915.4 A 0.5 0.5 -42.2 0 0 696.9 915.4 Z M 1312 978.2 L 1320 977.3 Q 1323 977 1323.3 980 L 1324.5 989.6 Q 1324.5 990.1 1324.3 990.5 C 1322.5 994 1325.8 998.7 1324.1 1002.3 Q 1323.9 1002.7 1323.9 1003.2 Q 1324.2 1005.9 1324.5 1008.6 Q 1324.7 1010.5 1324.2 1013.9 C 1323.8 1016.9 1324.4 1019.5 1323.8 1022.6 C 1323.1 1026.3 1323.9 1030.2 1323.5 1033.8 C 1323.2 1037.3 1323.8 1040.7 1323.4 1044.3 Q 1323.2 1046.5 1323.4 1048.8 Q 1323.5 1051.8 1323.4 1055.2 C 1323.2 1058.5 1324 1061.5 1323.8 1064.9 Q 1323.5 1069 1324.6 1073.1 A 1.9 1.8 -46.4 0 1 1324.6 1074 Q 1323.5 1078.2 1324.8 1082.3 C 1325.3 1083.8 1325 1084.7 1324.4 1086 Q 1324.2 1086.4 1324.3 1086.9 C 1325.7 1092.5 1325.4 1096.2 1326 1100.8 Q 1326.5 1104.8 1326.7 1107.3 Q 1327 1109.8 1327.7 1112.3 C 1328.7 1116 1328.4 1119.6 1329.4 1123.3 Q 1330.5 1127.2 1330.8 1129.2 Q 1332.3 1138.3 1335.8 1146.8 Q 1336.3 1148.2 1336.4 1149.8 C 1336.7 1153.1 1338.9 1156.3 1339.9 1159.5 Q 1340.7 1162.4 1342 1164.8 C 1344.1 1168.4 1345.3 1172.6 1347.3 1175.9 Q 1354.2 1187.5 1358.9 1193.1 Q 1368.2 1204 1376.2 1209.3 Q 1385 1215.1 1387.7 1216.5 Q 1394.6 1220.2 1403.8 1221.8 C 1406.5 1222.2 1409.9 1223.5 1413.6 1223 C 1415.9 1222.8 1417.2 1224.2 1419.8 1223.6 Q 1423.4 1222.8 1427 1223 C 1429.6 1223.2 1431.5 1222.7 1433.9 1222.2 C 1436.7 1221.8 1440.6 1221.8 1444 1220.8 C 1448 1219.5 1451.8 1219.4 1455.7 1217.9 C 1458.5 1216.8 1461.3 1216.6 1464.1 1215.5 C 1468.6 1213.7 1472.7 1212.5 1476.4 1209.8 C 1478.8 1208 1481.7 1207.9 1484.3 1205.9 C 1489.6 1201.9 1495.4 1198.6 1499.9 1193.9 Q 1503.1 1190.7 1506.2 1187.4 C 1508.6 1184.9 1510.3 1181.8 1512.6 1179 Q 1515.6 1175.3 1517 1172.7 C 1526.8 1154 1531.6 1135 1533.8 1113.7 C 1534 1111.3 1533.9 1108.4 1534.2 1105.7 C 1534.7 1102.1 1534.1 1098.8 1534.4 1095.2 C 1534.8 1091.6 1534 1088.5 1534.1 1084.9 C 1534.3 1081 1533.3 1077.6 1533.3 1073.7 C 1533.3 1070.2 1531.8 1067.3 1531.6 1063.6 Q 1531.3 1059 1529.4 1054.9 Q 1529.1 1054.3 1529.1 1053.7 L 1529.2 1052 A 0.4 0.4 0 0 0 1528.5 1051.7 C 1524.6 1054.2 1520.8 1057.3 1516.9 1059.3 Q 1504.5 1065.9 1491.2 1070.6 C 1487.8 1071.9 1484 1072.2 1480.3 1073.3 Q 1477.8 1074.1 1475.3 1074.2 Q 1472.5 1074.2 1469.7 1074.4 C 1466.1 1074.7 1462.6 1073.7 1458.8 1073.8 Q 1456.9 1073.8 1454.7 1073.2 C 1451.5 1072.2 1447.6 1072.5 1444.8 1071.8 Q 1430.5 1068.4 1426.3 1066.3 C 1421.7 1064 1416.8 1062.1 1413.1 1058.4 C 1410 1055.3 1404.2 1051.9 1403.1 1047.1 Q 1402.2 1042.7 1400.6 1038.4 A 0.9 0.9 52.4 0 1 1400.7 1037.6 L 1402.3 1035.1 A 0.3 0.2 -33.7 0 0 1402.4 1035 Q 1403 1031.2 1403.3 1027.4 Q 1403.4 1026.6 1404.2 1026.4 L 1413.4 1024.9 A 0.7 0.7 0 0 1 1414.1 1025.4 C 1416.3 1030.8 1420 1032.8 1423.9 1036.6 Q 1426.4 1038.9 1428.7 1040.1 Q 1437.5 1044.4 1446.8 1046.9 C 1449.3 1047.5 1452.7 1047.7 1455.6 1048.7 C 1458.1 1049.6 1459.9 1049.5 1462.4 1049.5 C 1465.5 1049.7 1469.2 1050.9 1473.1 1050.2 C 1475.4 1049.7 1476.9 1050.6 1479.3 1049.8 Q 1494.5 1045 1508.8 1038 C 1512.4 1036.3 1515.7 1033.4 1519.5 1031.5 C 1524.3 1029 1527.8 1025.3 1532.2 1022.4 C 1535.9 1019.9 1538.4 1016.8 1541.7 1013.9 C 1546.6 1009.7 1550.1 1005.5 1554.4 1001.2 C 1557.2 998.2 1559 994.6 1561.5 991.3 Q 1565.5 986 1566.8 983.8 Q 1579 963.3 1584 939.8 C 1584.8 936.1 1584.2 932.3 1584.9 928.4 C 1585.5 924.9 1584.4 922.2 1584.5 918.8 C 1584.7 915.2 1583 912 1582.7 908.4 Q 1582.4 906.2 1581.7 904.2 C 1580.5 900.8 1579.8 896.7 1578.7 893.8 C 1567.6 864.4 1547.8 840 1519.1 826.2 C 1515.9 824.6 1511.5 823.4 1507.8 821.5 C 1504.3 819.7 1500.7 819.5 1497.1 818 C 1493.5 816.6 1490 817.1 1486.4 815.9 C 1482.8 814.6 1479.3 815.3 1475.5 815.1 C 1473.3 814.9 1471.6 815.5 1469.5 816.1 Q 1468.1 816.5 1464.9 816.8 C 1461.7 817 1459.3 818.7 1456.2 819.2 Q 1453.7 819.6 1452.7 820.1 Q 1440 826.7 1435.5 830.3 C 1413.8 847.4 1399.3 873.1 1389.2 898.2 Q 1388.8 899 1387.9 900.6 C 1386.9 902.4 1386.2 905.3 1385.7 906.5 Q 1380.9 918.6 1379.7 924 Q 1378.5 929.1 1377.4 932 C 1376.3 935 1376.2 938 1375.2 941.2 C 1373.9 945 1373.5 949.3 1372.5 952.9 Q 1370.7 960.2 1370 967.8 C 1369.8 970.2 1369.1 972.6 1368.9 974.6 Q 1365.6 1008.1 1363 1041.6 C 1362.4 1050.3 1362.7 1060.8 1362 1070.4 C 1361.8 1072.3 1362.2 1074.7 1361.1 1076.8 Q 1359.3 1080.3 1359.3 1080.3 C 1357.5 1084.9 1356.5 1088.9 1350.4 1088.2 Q 1349.8 1088.2 1349.5 1087.6 L 1346 1078.8 Q 1345.8 1078.3 1345.8 1077.8 Q 1346.5 1073.8 1346.1 1069.8 Q 1345.9 1067.9 1346.4 1065.7 Q 1347 1062.9 1346.6 1060 Q 1346.3 1057.5 1346.6 1055.5 C 1347.2 1051.6 1346.9 1047.2 1347.1 1043.8 Q 1349.7 1011.3 1352.9 978.9 Q 1353.4 973.6 1354.5 967.2 C 1355.5 961.6 1356 955.9 1357.5 950.4 C 1358.3 947.5 1358.4 944.4 1359.4 941.4 Q 1360.5 937.9 1360.8 936.5 Q 1363.7 923.3 1367.8 910.5 C 1371.8 898.3 1374.1 890.5 1378.7 881.1 Q 1379.9 878.8 1382 873.8 C 1384.2 868.4 1387.3 863.8 1388.4 857.7 A 1.3 1.3 34.7 0 0 1388.3 856.8 C 1386.3 853.7 1383.9 851.1 1382 847.9 Q 1380 844.4 1378.2 842.6 Q 1370.1 834.1 1360.2 827.9 C 1357.3 826.1 1354 824.8 1350.8 823.2 Q 1347 821.4 1343.5 820.3 C 1333.3 817.2 1327 815.9 1318.7 814.9 C 1315.1 814.4 1311.6 815.3 1307.7 815.1 C 1304.4 814.9 1301.2 816.3 1297.5 816.6 Q 1293.5 817 1289.8 818.8 C 1288.2 819.5 1286.2 819.3 1284.4 820 Q 1275 823.6 1263.7 830 Q 1249.6 837.9 1241.8 851.1 C 1239.8 854.5 1238.2 859.1 1236.1 863.1 Q 1235.5 864.1 1234 867.8 C 1231.9 873 1223.6 879.2 1227.2 885.1 Q 1231.4 892.1 1232.5 900.3 A 1.3 1.3 15.9 0 0 1233 901.2 Q 1236.5 903.9 1236.3 908.2 C 1236.1 912.9 1238.4 916.1 1239.5 920 Q 1240.3 923 1241 926 C 1241.8 929.2 1244.2 930.6 1243 934.7 A 1.1 1.1 36.3 0 0 1243.2 935.6 Q 1244.2 937.1 1245 938.8 C 1246.7 942.4 1245.1 945.7 1246.9 949.7 C 1248.5 953.3 1248.2 957.4 1248.8 960.6 C 1249.5 963.9 1250.2 966.7 1250.1 970.2 C 1250 972.9 1250.7 975.1 1250.6 977.8 C 1250.5 980.4 1251.6 983.6 1251.7 985.2 Q 1252.2 990.3 1251.5 995.3 Q 1251.1 998.1 1251.3 1001.3 C 1251.4 1004.7 1250.5 1007.7 1251.2 1011.2 Q 1252.2 1016.2 1248.6 1019.6 A 2.2 2.2 57.3 0 0 1248.1 1022 C 1249.6 1025.7 1248.5 1029.7 1248.5 1032.8 Q 1248.4 1039.5 1245.6 1045.5 Q 1244.4 1048 1244.1 1049.7 C 1243.7 1053.2 1244.3 1056.5 1243.2 1059.7 C 1241.5 1064.8 1238.3 1070.2 1238 1076.4 Q 1237.8 1079.2 1236.8 1081.1 Q 1235 1084.8 1232.4 1088.2 Q 1232.1 1088.7 1232.2 1089.2 C 1232.7 1091.6 1232.8 1093 1231.4 1095.3 Q 1228.6 1099.7 1226.8 1104.6 C 1226.2 1106.2 1226.9 1107.5 1226 1109.1 Q 1223.8 1112.6 1221.9 1116.3 A 1.5 1.4 -87.2 0 1 1221.2 1116.9 Q 1216.2 1119.1 1217.7 1124.2 A 1.2 1.2 57.8 0 1 1217.4 1125.3 Q 1213.9 1129.4 1211.9 1134.3 A 1.6 1.5 88.4 0 1 1211.2 1135.1 C 1207.5 1137.2 1206.3 1141.3 1205 1145.1 C 1204.3 1147.2 1202.8 1148.2 1201.5 1149.9 Q 1200.6 1150.8 1199.5 1153.4 C 1198.4 1156 1196.2 1157.4 1194.8 1159.7 Q 1192.4 1163.5 1188.7 1165.9 A 1.7 1.7 82.8 0 0 1188 1166.8 Q 1186.6 1171 1183.8 1174.3 Q 1183.5 1174.7 1183.6 1175.2 Q 1187.1 1191.6 1190 1198.8 Q 1192.1 1203.9 1199 1216 C 1201.4 1220.2 1204.5 1223.3 1207.7 1226.9 C 1210.7 1230.2 1214.4 1232.2 1217.9 1235 C 1220.2 1237 1222.6 1237.5 1225.1 1238.9 Q 1228.8 1240.9 1230.7 1241.5 Q 1239.1 1244.4 1248 1245.5 C 1251.2 1245.8 1254.6 1245.5 1258.1 1245.6 C 1261.8 1245.8 1265 1244.8 1268.7 1244.5 C 1271.8 1244.2 1273.9 1243.1 1276.7 1242 C 1278.8 1241.1 1282 1240.8 1284.1 1239.1 Q 1288.3 1235.8 1292.6 1232.6 C 1296.1 1230 1298 1227 1300.7 1223.8 Q 1303.9 1220.1 1306.1 1216.7 Q 1313.8 1204.7 1315.7 1199.8 Q 1318.7 1192.2 1320.3 1182.3 Q 1320.8 1178.6 1323.1 1168.3 A 1.6 1.6 39.4 0 0 1323 1167.3 C 1321.6 1164.2 1320.3 1161.7 1319.3 1158.2 Q 1318.6 1155.5 1317.2 1151 Q 1316.3 1148.1 1314.4 1137.1 C 1314 1134.5 1312.8 1130.9 1312.6 1127.8 Q 1312.4 1125.1 1311.7 1122.4 C 1310.7 1118.7 1310.9 1115.2 1310.1 1111.4 Q 1309.6 1108.8 1309.6 1106.1 C 1309.7 1102.8 1308.5 1100 1308.7 1096.7 Q 1308.8 1093.8 1308.5 1091.8 Q 1308.1 1088.8 1308.1 1085.8 Q 1308.2 1080.8 1308.1 1079.7 Q 1307 1054.2 1307.9 1030.3 C 1308 1027.2 1307.7 1024.6 1308.1 1021.6 Q 1308.5 1017.9 1308.1 1014.2 C 1307.9 1012.6 1308.7 1010.6 1308.5 1009.5 Q 1307.7 1005 1308.2 1000.6 C 1308.4 998.3 1308.2 996.5 1308 994.3 Q 1307.8 992.2 1308.6 989.8 C 1309.7 985.9 1309.5 982.2 1311.3 978.6 Q 1311.5 978.3 1312 978.2 Z M 360 851.6 Q 354.6 854.4 358.1 860.4 Q 362.2 867.3 365 876 Q 365.6 877.9 367.1 879.6 Q 371.4 884.7 372.8 891.2 Q 373.3 893.3 374.4 894.4 C 377.5 897.5 379.9 899.4 381.8 903.9 Q 382 904.4 382.3 904 Q 394.9 886.9 406.9 869.4 Q 407.8 867.9 408.6 866.4 Q 408.8 865.9 408.3 865.6 Q 405.4 863.6 403.2 860.7 C 401 857.7 397.9 856.5 395.6 853.1 Q 392.1 848.1 388 843.5 C 385.9 841.2 384.4 838.7 382.4 836.3 A 1.2 1.2 30.3 0 1 382.1 835.3 Q 382.3 834.2 381.6 833.7 Q 381.1 833.3 380.9 833.9 C 380.5 835 380.1 836 379 836.6 C 372.3 840.2 368.7 845.9 363.1 849.1 C 362 849.8 361.4 850.9 360 851.6 Z M 1179.3 861.5 Q 1176.1 866.8 1173 872.1 C 1171 875.4 1168.3 879.1 1166.2 882.8 C 1163.5 887.7 1159.8 893.2 1157.3 898.8 C 1156.4 901 1155.3 902.6 1153.7 904.1 A 1.2 1.2 53.7 0 0 1153.5 905.5 C 1156.3 910.6 1161 914.1 1164 917.7 Q 1170.5 925.6 1174.5 932.5 Q 1184.2 948.7 1191.8 969.2 Q 1193.3 973.3 1195 984.7 Q 1195.2 985.4 1195.6 984.9 C 1196.7 983.5 1197.3 981.7 1198.5 980.5 Q 1201.5 977.3 1204.1 973.8 C 1207.4 969.6 1211.5 966 1214.8 961.5 C 1217.7 957.5 1222.7 955.9 1222.1 950 Q 1221.5 944.3 1220 938.8 C 1219.5 936.8 1220.3 935.4 1219.5 933.4 Q 1216.3 925.1 1214.1 916.6 Q 1212.6 911.1 1210.8 906.7 Q 1208.7 901.8 1206.8 897 C 1203 887.7 1198.3 879.5 1193.7 870.8 C 1192.2 868 1190.4 865.6 1188.6 863 C 1186.7 860.3 1186.1 856.8 1183.1 854.1 Q 1182.6 853.7 1182.4 854.3 C 1181.5 856.9 1180.7 859.1 1179.3 861.5 Z M 1084.3 874.2 Q 1081.5 872.1 1078.4 870.4 A 1 1 -40.6 0 0 1077.4 870.3 C 1074 871.7 1069.6 869.2 1066.5 867.6 C 1064 866.4 1061.8 867.5 1059.3 866.5 Q 1052.4 863.7 1047.1 863.4 Q 1042.6 863.1 1039.8 862.7 C 1037.4 862.3 1034.2 862.6 1031.5 861.3 A 1.5 1.5 -38.5 0 0 1030.5 861.2 C 1027.8 861.8 1025.2 860.9 1022.7 861 Q 1017.2 861.3 1012 860.1 A 0.7 0.7 0 0 0 1011.2 860.8 L 1011.8 1003.2 A 3.4 3.4 17.8 0 0 1013.2 1005.9 Q 1076.7 1051.4 1139.9 1096.8 C 1147 1101.9 1154.5 1108.3 1162.2 1114 Q 1163 1114.6 1163.3 1113.6 Q 1164.4 1109.9 1166.2 1106.1 Q 1167.2 1103.8 1170.3 1099.2 Q 1177.7 1088 1179.6 1074.5 C 1180 1071.5 1181.7 1069.2 1182.1 1065.8 Q 1182.6 1062.1 1184 1058.6 C 1185.1 1056 1184.8 1053.2 1185.7 1050.2 Q 1187.1 1045.9 1186.7 1041.3 Q 1186.6 1040.8 1186.8 1040.4 Q 1187.8 1038.3 1187.6 1037.3 Q 1186.8 1032.6 1187.7 1028 C 1188 1025.9 1187.7 1024 1188 1021.8 C 1188.5 1018.2 1187.4 1015.5 1188.3 1011.9 A 1.8 1.8 44.4 0 0 1188.3 1010.9 Q 1186.1 1003.7 1186.4 1000.5 Q 1186.8 997 1185.5 995.1 Q 1185.2 994.7 1185.2 994.2 C 1184.5 988 1183 984.3 1182.3 979.4 C 1182 977.3 1181.3 976.2 1180.5 974.3 Q 1180.3 973.8 1180.5 973.3 Q 1181.1 971.5 1180.2 970 Q 1177 964.6 1175.5 959 C 1174.2 954.1 1171.2 950 1168.8 945.5 C 1166.6 941.1 1163.3 937.3 1160.8 932.9 Q 1158.3 928.8 1156 926.1 C 1150.6 919.7 1145.3 913 1139.2 907.4 C 1133.3 902 1127.8 897.1 1121.1 893.2 C 1115.7 890 1112 887.4 1107.4 884.3 Q 1105 882.6 1101.7 881.5 Q 1095.1 879.2 1089.1 875.6 C 1087.6 874.7 1085.3 874.9 1084.3 874.2 Z M 608.1 926.5 L 606.8 929.3 A 1.1 1.1 3.9 0 1 606.1 929.8 L 595.2 933.5 Q 594.8 933.6 594.9 934 Q 595.4 936.8 596.4 939.3 Q 604.1 958.1 610 977.2 A 1.3 1.3 -20.1 0 0 611.7 978 Q 616.3 976 621.4 974.6 Q 623.8 974 626.1 972.5 C 630 970 634.5 968.1 638 965.9 Q 642.6 963.1 647.4 960.7 Q 649.8 959.5 652 957.5 C 655.7 954.2 661.4 950.7 663.9 948.7 C 667.9 945.5 671.8 942.6 675.3 938.7 Q 680.7 932.5 686.7 926.9 C 688.9 924.9 690.8 922.5 692.9 920.3 Q 693.3 919.9 692.9 919.5 C 691 917.9 690.4 915.9 688.5 914.3 C 679.4 906.6 669.3 895.8 662.8 889.6 Q 647.9 875.3 633.6 861 A 1.3 1.3 0 0 0 631.9 860.8 Q 627 864.3 623 868 C 619.5 871.4 616.4 874 613 877 C 609.6 880.1 605.3 881.8 601.8 885.2 Q 599.5 887.4 597.1 886.5 A 1.3 1.3 0 0 0 595.5 888.1 Q 599.3 897.6 601.6 907.2 C 602.3 910 604.4 911.3 604.9 914.3 Q 606.1 920 608.2 925.5 Q 608.4 926 608.1 926.5 Z M 816.7 1037.4 Q 814.9 1045.8 815.1 1052.3 Q 815.2 1055.1 814.2 1057 A 0.9 0.9 40.1 0 0 814.3 1058 Q 816.2 1060.5 814 1062.7 A 0.8 0.8 0 0 0 813.9 1063.6 C 814.8 1065.8 817.1 1068.4 814.7 1070.6 Q 814.3 1070.9 814.6 1071.4 C 817.5 1075.7 815.9 1079.2 816.9 1083.9 Q 817.8 1088.3 818 1090.2 Q 819.1 1099.7 823.5 1108.3 C 825.3 1111.9 825.4 1117.8 827.7 1122.1 Q 829.4 1125.3 831 1130.3 Q 833.8 1138.6 841.5 1145.2 Q 842 1145.5 842.4 1145.2 C 844.9 1143.2 847 1139.6 848.5 1138 C 853.8 1132.2 858.9 1126.3 864.4 1120.9 Q 918.4 1066.8 972.5 1012.8 C 974.6 1010.7 981.2 1004.8 981.2 1002 Q 981.5 950.8 980.3 899.5 C 980.1 890.8 980.3 874.8 979.4 862.4 A 0.3 0.3 0 0 0 979 862.1 Q 974.6 863.5 970.6 865.5 C 969.3 866.1 968.2 866.1 966.8 866.3 C 965.1 866.6 963.7 868 961.7 868 C 958.5 868.1 955 869.4 951.9 870.5 Q 950.7 870.9 945.4 872.1 Q 941.9 873 938.8 874.9 C 935.1 877.1 931.2 877.6 927.4 879.9 Q 922.8 882.7 921.1 883.5 Q 911.3 888 907.3 890.9 Q 902.8 894.1 900 895.8 C 896.4 898.1 893.9 900.9 890.5 903.3 C 887 905.8 885.8 909 881.4 910.8 C 880.4 911.2 879.3 912 878.7 912.7 Q 869.1 924.2 858.9 935.3 Q 857.2 937.1 855.6 940.1 C 853.4 944.1 850.1 947.2 847.7 950.6 C 845.6 953.5 842.8 956.3 841.9 960 Q 841.1 963 840.1 964.8 Q 835.4 973 830.8 981.3 C 828.9 984.7 828.9 988.4 827.5 991.6 Q 824.3 998.8 821.8 1006.4 C 820.9 1009 821.9 1011.6 820.5 1014.4 C 819 1017.4 819 1019.9 818.3 1023 C 817.6 1026.1 817.8 1029.9 816.3 1033.4 Q 816.1 1033.8 816.3 1034.3 C 816.7 1035.5 816.9 1036.1 816.7 1037.4 Z M 435.9 917.5 C 434.9 915.6 433.8 913.8 434.1 911.5 C 434.5 907.8 436.2 904.5 436.7 901.1 Q 437.6 894.8 438.7 888.6 Q 439 887 437 885.5 A 1.1 1.1 -28.6 0 0 436.2 885.3 Q 433.2 885.6 431.8 883 A 1.6 1.6 89 0 0 431.1 882.4 Q 428.6 881.1 426 880 C 423.1 878.8 421.4 876.3 418.5 874.8 C 416.6 873.7 415.2 872 413.3 870.8 A 0.6 0.6 0 0 0 412.6 871 L 386.6 907.8 Q 386.3 908.1 385.9 908.4 L 385.6 908.6 A 0.5 0.5 0 0 0 385.6 909.4 Q 389.3 912 392 915.6 C 393.6 917.8 393.4 921.2 395.7 922.8 Q 405 929.5 410.7 936.2 C 412.7 938.5 415.4 940.3 417.4 942.7 C 419.2 945 421.1 945.6 423.4 947 C 427.2 949.3 430.2 953 434.4 955.4 Q 434.9 955.7 435.1 955.1 Q 437 948.7 438.9 942.4 C 440.7 936.8 441.1 930.3 443.5 924.3 Q 443.9 923.2 444 920.8 A 0.7 0.7 0 0 0 443.5 920.1 L 436.6 918.2 A 1.2 1.2 -5.1 0 1 435.9 917.5 Z M 760.4 993.5 Q 764.8 992.4 769.1 993.7 C 771.2 994.3 772.9 996 775.2 996.8 Q 779.6 998.1 779.6 998.1 Q 794.8 1004.3 809.6 1010.5 A 0.9 0.9 0 0 0 810.8 1009.6 C 810.4 1006.9 810.2 1004.9 811.2 1002.3 Q 815.4 991.6 818.9 980.8 C 820.2 976.6 822.4 973.4 824.2 969.2 C 826.2 964.5 830.1 961.5 831.5 956.5 A 2.4 2.4 -71.5 0 0 830 953.7 Q 822.4 950.5 815.5 946.5 Q 809.1 942.8 804.7 940.7 Q 791.4 934.4 778.9 926.7 Q 778.5 926.5 778.3 926 C 777.5 924 777.5 922.6 778.6 920.5 Q 780.6 916.9 782.2 912.9 A 0.6 0.6 22.1 0 0 781.9 912.1 C 780.1 911.4 778.4 911.1 776.8 910.1 C 772.5 907.4 767.7 905 763.7 901.9 Q 762.4 900.8 760.8 900.1 C 756.7 898.2 753.6 895.4 749.6 893.5 Q 749.1 893.2 749 893.7 Q 747.1 900 743.4 905.5 C 741.9 907.8 741.6 909.6 740.9 912.1 Q 740.5 913.7 738.9 916.7 C 737.3 919.9 737.2 924.2 736.5 926.8 Q 735 932.6 733.4 938.5 C 732.4 942.1 732.7 946.4 731.9 949.8 Q 730.6 955.1 728.3 960.1 A 1.4 1.3 -40.2 0 0 728.2 961 C 730 967.4 728.7 970.8 727.4 976.3 Q 726.8 978.9 727.1 982.3 Q 727.5 987.2 727.1 991.9 A 1.5 1.4 14.3 0 0 728 993.3 Q 732.5 995.4 737.2 996.3 C 741 997.1 744 998.9 747.5 1000.3 C 750.6 1001.5 754.3 1001.7 757.7 1002.9 A 0.6 0.6 0 0 0 758.6 1002.3 Q 758.3 998.1 759.7 994.1 Q 759.9 993.6 760.4 993.5 Z M 532.2 937.7 L 529.7 940.3 Q 529.4 940.6 528.9 940.6 L 519.1 941.4 A 1 1 0 0 0 518.2 942.5 Q 519.7 950.9 518.5 959.4 C 518.3 961.1 518.9 962.8 518.9 964.8 Q 518.6 973.8 519.1 988.5 Q 519.1 989 519.6 989 Q 523.2 988.8 526.2 990.3 C 530.1 992.3 535.2 991.8 539.4 991.6 C 542.8 991.3 545.2 992.6 548.7 991.5 Q 554.6 989.6 560.7 990.2 Q 563.5 990.4 565.8 990 C 572.3 988.5 579 987.7 585.3 986 Q 595.1 983.5 604.4 981.4 Q 606 981.1 605.3 979.7 Q 602.8 974 601.5 967.9 C 601.1 965.7 599.6 964.1 598.9 961.9 C 596.6 954.9 594.3 947.9 591.2 941.2 Q 590.1 938.8 589.8 936.1 A 0.9 0.9 0 0 0 588.5 935.5 C 585.3 937.3 583.5 938.2 579.7 936.7 Q 579.3 936.5 579.1 936 Q 578.2 932.9 575 927.2 C 572.3 922.4 572.3 914.9 568.7 909.4 C 567.1 906.9 566.5 904 564.5 901.4 Q 564.2 901 563.8 901.2 Q 559.7 902.9 555.4 903.5 Q 553.9 903.7 551.8 904.7 Q 548.5 906.2 544.7 905.1 A 1.4 1.4 0 0 0 543.7 905.1 Q 539.5 907 535 905.8 Q 532.9 905.2 532.7 907.4 Q 532.2 914.6 533.1 922 Q 533.8 927 532.5 937 A 1.2 1.1 71.9 0 1 532.2 937.7 Z M 503.8 941.9 L 501.1 938.8 Q 500.8 938.4 500.8 937.9 C 500.7 935.1 501.4 932.6 500.8 929.9 Q 500.5 929 500.6 928.1 Q 501.4 918.3 500.9 908.5 Q 500.7 906 498.3 905.9 Q 493.3 905.7 488.5 905 C 483.5 904.4 477.3 902 471.2 901.4 Q 470.7 901.4 470.5 901.9 Q 467.4 908 466.7 909.7 C 465.1 913.7 462.8 920.6 459.8 922.4 C 457.4 923.9 452.5 922.1 449.6 921.8 Q 449.1 921.7 449.1 922.2 Q 448.8 925.5 447.9 928.7 Q 446.6 933.1 446.2 935 Q 444 946.4 440 956.9 A 2.2 2.2 0 0 0 440.8 959.5 L 445.8 963.1 A 1.6 1.6 9.9 0 1 446.4 964 C 447.8 969.1 453.5 968.5 457.2 970.1 Q 460.9 971.5 473 976.9 Q 478.1 979.2 484.5 981.1 Q 492.6 983.4 500.6 986.4 Q 502.6 987.1 505.1 987.1 Q 509.1 987 513 987.9 A 0.9 0.9 0 0 0 514 986.6 Q 513.5 985.3 513.5 983.5 Q 513.9 971.7 512.9 960 C 512.7 957.4 513.9 955.3 513.6 952.6 Q 513.2 947.3 512.7 941.9 Q 512.7 941.2 512 941.3 L 504.5 942.2 A 0.7 0.7 0 0 1 503.8 941.9 Z M 620 1001 L 619.8 1000.8 A 0.6 0.6 50.4 0 0 619 1000.7 C 617.2 1001.9 615.7 1003 613.6 1003.7 Q 606.1 1006.1 598.6 1008.2 Q 598.5 1008.3 594.4 1009 C 591.4 1009.6 588.1 1012.3 584.9 1010.5 Q 584.5 1010.2 584.1 1010.5 Q 578.2 1014.1 571.3 1014.1 Q 569.3 1014.1 566.7 1014.6 Q 561.8 1015.7 556.9 1013.6 Q 554.5 1012.6 553.8 1014.8 A 0.8 0.8 -80.4 0 1 553 1015.4 L 550.5 1015.4 A 1.4 1.4 83.8 0 0 549.2 1017 Q 556.3 1049.8 556.8 1083.5 C 557 1096.2 555.5 1108.4 547.9 1118.6 C 540.6 1128.2 532.2 1133.3 520.2 1136.7 C 506.6 1140.5 490.6 1141.9 478.8 1145.6 C 471.4 1147.9 466.6 1155.9 470.4 1163.4 C 476.9 1176.1 487.7 1185.5 496.6 1195.7 C 507.3 1207.7 512.7 1218.7 512.1 1234.3 Q 511.8 1242.2 510.5 1246.6 C 508.1 1255.4 500.7 1261.6 492.8 1267 Q 478.9 1276.5 463.2 1282.2 Q 462.9 1282.3 463.3 1282.3 Q 497.9 1282.5 532 1278.6 Q 549.5 1276.7 562 1273.4 C 572.1 1270.8 595.9 1259.3 591.8 1245 C 590.8 1241.6 590.2 1238 589.1 1234.8 Q 583.3 1218.4 580.5 1206 C 578.1 1195.4 580.6 1178.7 590.2 1172.2 C 595.8 1168.5 604 1165.5 611.5 1163.1 C 629.3 1157.5 647.1 1153.1 665.9 1149.9 Q 685.5 1146.6 705 1142.8 C 710.9 1141.7 719.1 1139.8 723.3 1137.6 C 726.3 1136 733.2 1129.8 735.7 1125.2 A 0.9 0.9 41.8 0 0 735.6 1124.2 C 732.9 1120.4 731.9 1116.3 729.3 1112.4 A 1.6 1.6 -64.6 0 1 729 1111.6 Q 728.7 1108.2 726.8 1105.5 C 724.8 1102.8 724.4 1099.8 722.3 1096.8 Q 718.6 1091.4 718.5 1084.6 A 1.5 1.5 -65.4 0 0 718.1 1083.7 Q 716.1 1081.1 715 1078.1 C 714.3 1076.2 714.7 1074.2 714.7 1072.2 A 0.9 0.9 -75.3 0 0 714.3 1071.4 Q 712.3 1070.2 712.1 1068.6 Q 711.4 1062.3 710.7 1056 C 710.4 1053.5 705.2 1048.3 708.1 1045.2 A 0.8 0.8 -37.2 0 0 708.3 1044.3 C 707.8 1043.3 706.6 1042.5 706.2 1041.7 Q 704.9 1038.8 705.3 1035.6 A 1.8 1.7 37.9 0 0 705.2 1034.6 Q 703 1029.6 703.9 1024.2 C 704.3 1021.9 702.9 1020.3 703.2 1017.9 Q 703.6 1014.7 702.5 1011.7 A 1.5 1.4 -45.5 0 1 702.5 1010.7 C 704 1006.5 701.2 1003.8 702.6 999.2 A 2 1.9 46.7 0 0 702.6 998.2 Q 700.8 990.7 702.4 983.3 C 703.2 979.9 702.4 976.9 703.2 973.5 C 704 970.2 703.6 967.1 705 964 A 2 1.9 55.1 0 0 705.2 963 C 704.6 958.3 703.7 954 707.4 949.8 C 708.3 948.9 708.3 948.2 707.8 947.1 Q 707.6 946.6 707.7 946.1 L 708.2 938.3 Q 708.3 937.3 707.6 938 C 706.1 939.6 704.6 940.5 703.5 942.5 C 701.7 945.7 698.8 948.1 697 950.6 Q 694.6 954 692.2 957.4 A 1.7 1.6 7.1 0 1 691.5 958 C 687.8 959.5 684.7 960.5 682 963.3 Q 679.5 966 677.4 968.9 C 675.1 972 671.6 973.4 668.6 975.8 A 0.6 0.6 20.2 0 1 668.3 975.9 L 665 976.3 A 1 1 -79.6 0 0 664.2 976.9 C 662.9 979.5 661.6 981.4 658.8 982.8 C 654.8 984.7 651.5 987.1 647 988.2 Q 642.3 989.4 640.9 990.6 C 638.1 992.9 634.3 994.3 631.7 995.8 Q 626.5 998.8 620.9 1001.1 Q 620.4 1001.4 620 1001 Z M 1215.8 1038.6 C 1217.7 1039.2 1219.1 1040.8 1221.9 1040.3 A 1.1 1.1 0 0 0 1222.8 1039.2 Q 1222.4 1034 1223.9 1029.3 C 1225.8 1023.4 1225.9 1017.3 1227.3 1011.3 Q 1227.8 1009 1227.3 1006.7 C 1225.8 999.2 1226.5 991.5 1226.6 983.9 C 1226.7 979.8 1225.2 976 1225.9 971.4 C 1226.5 967.5 1225.2 964.2 1224.2 960.6 Q 1224 960.2 1223.7 960.5 C 1219.6 962.9 1218.3 966.6 1215.6 969.5 Q 1205.9 980 1197 991.2 Q 1196.7 991.6 1196.7 992.1 C 1196.9 994.6 1197.8 996.7 1197.8 999.2 C 1197.8 1003.1 1199 1006.8 1199 1010.3 Q 1199.2 1019.8 1199.6 1029.4 A 1.6 1.5 60.6 0 1 1199.4 1030.3 Q 1198.3 1032.2 1199.4 1034.1 Q 1199.7 1034.6 1200.3 1034.7 Q 1204.1 1035.1 1207.6 1036.4 C 1210.4 1037.5 1213 1037.8 1215.8 1038.6 Z M 774.1 1088.3 L 777 1084.6 Q 777.3 1084.2 777.9 1084.2 L 804.6 1081.6 Q 805.4 1081.5 805.4 1080.8 L 805.5 1076 A 0.8 0.8 -67.9 0 0 805.3 1075.4 Q 803.3 1073.5 803.5 1072 C 803.9 1068.1 802.9 1064.3 803.1 1060.7 Q 803.7 1050 803.9 1039.4 Q 803.9 1038.7 804.7 1037 Q 804.9 1036.6 804.5 1036.4 L 798.7 1033.5 A 0.7 0.5 50.1 0 0 798.4 1033.5 Q 797.1 1033.6 795.3 1033.1 C 786 1030.4 777.7 1026.9 768.8 1024.2 Q 763 1022.4 757.3 1020.2 Q 756.8 1020 756.5 1019.6 Q 754.8 1017.1 755.1 1014.1 C 755.3 1012.5 756.9 1010.6 755.5 1008.6 Q 754.6 1007.5 752.3 1007.1 Q 746.1 1006 740.6 1003.3 C 736.4 1001.2 731.9 1000.7 727.6 998.9 Q 727.1 998.7 727.1 999.3 C 727.1 1005.3 728.2 1011.2 728 1017.1 C 727.9 1020.6 729.1 1023.8 729.1 1027.1 C 729 1030.4 729 1033.4 730 1036.8 C 731.4 1041.8 731.6 1047 733 1051.6 Q 735.5 1059.5 738.2 1067.3 Q 739 1069.7 738.2 1073.3 Q 738.1 1073.8 738.3 1074.2 Q 741.1 1079 742.5 1084.3 Q 743.2 1086.6 744.5 1088.4 Q 747.4 1092.5 749.5 1097.1 C 751.2 1100.8 756.4 1098.2 759.3 1098.1 C 763.6 1098 769.4 1096.3 773.5 1097.6 A 1.1 1.1 0 0 0 774.9 1096.4 L 773.8 1089.3 Q 773.7 1088.7 774.1 1088.3 Z M 1215.2 1044.7 C 1210.7 1043 1205.9 1041.6 1200.9 1039.9 Q 1199.4 1039.4 1198.8 1040.9 L 1197.6 1044.3 Q 1197.5 1044.7 1197.5 1045.1 Q 1197.7 1049.4 1196.7 1053.5 C 1195.6 1057.7 1195.6 1061.8 1193.3 1065.9 A 1.9 1.9 58.7 0 0 1193.1 1067 Q 1193.3 1071.4 1190.7 1074.9 A 1.6 1.6 64.9 0 0 1190.3 1075.8 C 1190.2 1078 1190.5 1080 1189.8 1082.2 Q 1187.2 1090.1 1183.7 1097.7 C 1183.2 1098.7 1182.1 1099.5 1182.1 1101 A 1.5 1.4 -67.4 0 0 1182.5 1101.9 Q 1185.4 1105.2 1187.9 1108.7 C 1189.3 1110.7 1192.2 1112.5 1192.8 1115.6 A 0.7 0.7 0 0 0 1194.1 1115.7 Q 1197.3 1107.9 1202.7 1101.3 C 1205.2 1098.2 1205.8 1094.1 1206.9 1090.5 C 1209.1 1083 1212.6 1075.8 1215.6 1068.7 C 1217.3 1064.8 1217.8 1059.8 1220.3 1055.6 C 1222.5 1051.9 1222.9 1049.3 1220.9 1045.7 Q 1220.7 1045.2 1220.1 1045.3 Q 1217.5 1045.6 1215.2 1044.7 Z M 1072.9 1197.7 C 1074.9 1196.5 1076.9 1196.8 1079.1 1195.4 C 1084 1192.4 1089.1 1188.9 1094 1186.2 Q 1099.1 1183.4 1103.7 1179.8 C 1106.4 1177.8 1109.9 1176.1 1112.8 1173.5 Q 1123.9 1163.7 1133.4 1154.5 Q 1135.3 1152.6 1133.1 1151 L 1012.6 1064.4 Q 1012 1064.1 1012.1 1064.7 Q 1012.8 1130.9 1012.9 1197.2 Q 1012.9 1200.5 1012.5 1206.3 Q 1012.1 1210.9 1012.1 1215.5 A 0.9 0.9 0 0 0 1013.2 1216.3 C 1017.5 1215.8 1021.9 1214.1 1025.6 1213.3 Q 1031.6 1212.1 1037.3 1210.2 Q 1039.6 1209.4 1042.3 1209.2 C 1047.4 1208.8 1051.1 1206 1056.1 1205 C 1058.5 1204.5 1060.1 1203.5 1062.2 1202.4 A 1.5 1.4 33.1 0 1 1063 1202.3 C 1066.3 1202.6 1070.5 1199 1072.9 1197.7 Z M 952 1213.5 C 953 1214.1 953.9 1214.5 955.2 1214.3 C 960.1 1213.4 963.3 1215.4 967.6 1215.8 Q 974.8 1216.5 981.7 1217.9 A 0.8 0.8 0 0 0 982.6 1217.1 C 982.4 1211 982 1204.8 982 1198.6 Q 982.1 1132.1 981.3 1065.3 Q 981.3 1064.5 980.7 1065 Q 980.4 1065.3 979.9 1065.8 Q 936.8 1109.4 893.3 1152.7 C 885.7 1160.3 876.6 1169 871.2 1177 Q 870.9 1177.4 871.3 1177.8 L 874.9 1181.7 A 0.7 0.7 -10.6 0 0 875.2 1181.9 Q 881.4 1184.2 886.1 1188.5 C 889.3 1191.5 893 1192.9 896.5 1195.3 C 900.5 1197.9 904.3 1199.1 908.5 1201 A 1.7 1.6 53.1 0 0 909.4 1201.1 C 912.6 1200.8 913.5 1203 915.5 1204 Q 918.6 1205.4 923.2 1206.3 Q 926.2 1206.8 933.2 1209.1 Q 934.8 1209.7 939 1210.3 C 943.5 1211.1 945.6 1213.4 951 1213.2 Q 951.5 1213.2 952 1213.5 Z M 786.4 1112.5 C 782.4 1113.4 776.2 1113.9 775.5 1108.1 Q 775.3 1105.8 775.1 1103.5 Q 775.1 1102.9 774.5 1102.9 Q 766.3 1102.3 758.2 1103.5 C 756.9 1103.7 755.1 1105 754.1 1104.8 A 1.5 1.5 0 0 0 752.7 1107.3 C 754.5 1108.9 755.8 1110.4 757 1112.7 Q 761.4 1120.9 767.1 1128.5 Q 768.2 1130 769.6 1134.9 A 1.7 1.7 11.8 0 0 770.2 1135.7 Q 774.4 1139.1 776.9 1144 Q 778.6 1147.5 779.8 1148.7 Q 790.9 1160.8 802.3 1172.5 C 805.6 1176 810.6 1179.9 814.3 1184.2 Q 816.5 1186.8 819 1188.5 Q 827.9 1194.6 835.9 1201.4 A 1 1 0 0 0 837.4 1201.2 Q 839.8 1197.6 842.5 1194.2 C 845.7 1190.2 850.9 1185.6 854.5 1180.6 A 1.9 1.9 0 0 0 854.1 1177.9 C 846.9 1172.8 842.5 1164.5 835.7 1158.3 C 833.9 1156.5 833 1154.6 832 1152.3 Q 830.9 1150.1 829.1 1147.9 Q 825 1142.4 822.3 1136.1 C 820.4 1131.7 817 1128 815.9 1123.5 Q 815.2 1121 814.9 1118.4 A 1.8 1.7 21.5 0 0 814.5 1117.5 Q 812.4 1115.1 812.2 1112 C 812 1110.3 811.6 1108.6 809.7 1108.7 Q 806.2 1108.7 800.8 1110.5 Q 797 1111.7 791.5 1111.8 Q 789.4 1111.8 786.4 1112.5 Z M 1115.9 1185.7 C 1113.5 1187.7 1110.9 1187.6 1109 1190.5 Q 1108.7 1190.9 1109.1 1191.3 Q 1111 1193.6 1112.3 1196.3 C 1113.2 1198.2 1114.5 1199.3 1115.8 1200.9 A 0.5 0.5 0 0 0 1116.5 1201 Q 1120.8 1197 1125.8 1193.9 C 1129 1192 1131.6 1189.3 1135 1187.3 Q 1137.6 1185.9 1139.1 1184.2 Q 1150.1 1172.5 1161.4 1161.1 C 1164.9 1157.5 1167.7 1153.1 1171.2 1149.2 C 1173.9 1146.3 1176.5 1142 1180.2 1139 C 1181.4 1138 1182.4 1136.7 1182.9 1135.5 Q 1186.2 1128.1 1190.4 1121.4 A 0.8 0.8 42.5 0 0 1190.4 1120.5 L 1179.7 1106.9 Q 1179.3 1106.5 1178.9 1106.9 Q 1177 1108.6 1176.6 1109.7 Q 1172.7 1120.4 1167.1 1128.8 C 1163.3 1134.6 1160.1 1140.2 1155.9 1145.1 C 1150.1 1152.1 1144.5 1159.7 1138.2 1165.8 Q 1127.4 1176.2 1115.9 1185.7 Z M 906.7 1212 C 902 1210.6 896.3 1208.6 892.2 1205.7 C 887.6 1202.6 882.9 1201 878.7 1197.2 Q 877 1195.8 874.9 1194.8 Q 867.6 1191.7 862.6 1184.9 Q 861.5 1183.5 859.5 1183.4 Q 859 1183.4 858.8 1183.9 Q 857.6 1186.4 856.5 1187.5 Q 848.5 1195 841.8 1203.9 A 0.9 0.9 -55 0 0 842.1 1205.3 Q 847.2 1208.6 852.8 1211.5 C 857 1213.7 861.1 1217.5 864.5 1219.1 Q 871.2 1222.3 889.5 1229 C 891.7 1229.8 894 1231.3 896.3 1232.3 Q 896.8 1232.5 897.1 1232 Q 902.9 1223 907.2 1213.3 A 0.9 0.9 0 0 0 906.7 1212 Z M 1061.5 1230.2 C 1062.7 1231.7 1063.7 1231.5 1065.1 1230.4 Q 1070.2 1226.5 1076.3 1224.4 Q 1078.5 1223.7 1080.5 1222.3 Q 1084.6 1219.3 1089.5 1217.7 C 1092.9 1216.6 1094.7 1213.8 1097.2 1212.7 Q 1104.7 1209.5 1111 1204.4 Q 1111.5 1204 1111.1 1203.6 Q 1107.4 1199.7 1105.2 1194.8 A 0.6 0.6 0 0 0 1104.3 1194.5 Q 1101.4 1196.7 1097.8 1196.7 A 1.3 1.3 0 0 0 1097 1197 Q 1089.5 1203.1 1081.5 1206.5 Q 1075.3 1209.1 1070.7 1212 C 1068.6 1213.3 1066 1213.1 1063.7 1214.3 Q 1059.3 1216.6 1054.3 1216.8 A 1.4 1.3 23.9 0 0 1053.5 1217 Q 1051.2 1218.9 1048.3 1219.2 Q 1047.7 1219.3 1047.6 1219.9 L 1046.8 1232.8 A 1.3 1.3 0 0 0 1048.6 1234 Q 1050.1 1233.4 1051.8 1232.8 C 1054.9 1231.8 1057 1229.9 1060.6 1229.8 A 1.2 1.2 -20.1 0 1 1061.5 1230.2 Z M 903 1234.4 C 907.2 1235.4 911 1237.4 915.1 1238.5 Q 917.8 1239.2 923 1239.7 Q 932.9 1240.7 942.6 1243.1 Q 943.7 1243.3 945.3 1244.2 C 950.2 1246.9 953.4 1244.1 958 1244.9 Q 968 1246.6 978.4 1245.8 A 0.9 0.9 0 0 0 979.3 1244.9 L 979.2 1228.4 A 0.6 0.6 89.1 0 0 978.5 1227.8 C 976.9 1227.8 975.9 1228.3 974.3 1228 Q 967.3 1226.9 960.2 1226.2 C 954.4 1225.7 948.5 1224.2 942.5 1223.6 C 941.1 1223.5 939.5 1222.5 937.8 1222.3 Q 933.4 1221.8 929.4 1220.2 C 924.5 1218.1 919.4 1217.7 914.5 1215.6 A 1.8 1.8 0 0 0 912.2 1216.4 L 902.6 1233.5 Q 902.2 1234.2 903 1234.4 Z M 1027.3 1240.3 Q 1033.5 1237.8 1040.2 1236.7 A 2 2 82.5 0 0 1041.8 1234.5 Q 1041.2 1228 1042.3 1221.6 A 0.9 0.9 -6.4 0 0 1041.1 1220.6 Q 1035.6 1223 1029.7 1223.8 Q 1029.1 1223.9 1028.7 1224.3 Q 1027 1225.6 1024.9 1225 Q 1024.4 1224.8 1023.9 1225 Q 1016.2 1227.1 1008.1 1227.2 C 1005.1 1227.2 1002.9 1228.7 999.6 1228.2 Q 999.1 1228.2 998.6 1228.4 C 996.1 1229.4 993.5 1228.6 991.4 1228.8 Q 988.8 1229.1 986.1 1229.1 A 1.5 1.5 89 0 0 984.6 1230.6 L 984.8 1245.1 Q 984.8 1245.5 985.2 1245.4 C 990 1244.6 994.5 1244.7 999.2 1243.8 C 1002.4 1243.3 1005.3 1244 1008.4 1243.2 Q 1014.3 1241.7 1020.5 1241.9 Q 1023.4 1242 1027.3 1240.3 Z"
/>
<path fill="#353336" d="M 539.8 59.1 Q 537.9 60 535.8 59.4 Q 535.3 59.2 535.2 58.7 Q 533.4 49.6 542.7 48.2 C 572.7 43.9 599.8 45.5 632.6 49.3 C 652.5 51.6 672.4 54.6 692.3 57.2 C 712.5 59.8 732.6 63.5 752.7 66.8 C 756.2 67.4 755.7 72.4 754.9 75.5 Q 754.8 76 754.3 76.2 Q 752.5 76.8 750 76.4 Q 743.6 75.5 728.5 72.7 C 707.8 68.9 685.9 66.4 664.4 63.3 Q 633.2 58.7 598.8 55.9 Q 573.8 53.9 550.3 57 C 546.5 57.5 543.5 57.5 539.8 59.1 Z"
/>
<rect fill="#353336" x="-10.2" y="-4.9" transform="translate(810.5,80.8) rotate(10.2)" width="20.4" height="9.7" rx="3"/>
<path fill="#353336" d="M 902.4 101.3 A 2.3 2.3 0 0 1 900.7 98.5 L 901.4 95.7 A 4.9 4.7 14 0 1 907.3 92.3 L 923.4 96.3 A 4.9 4.7 14 0 1 927 102.1 L 926.3 104.9 A 2.3 2.3 0 0 1 923.4 106.6 L 902.4 101.3 Z"
/>
<path fill="#353336" d="M 919.2 447.3 C 928.9 432.1 934.3 414.9 937.2 396.7 C 939.8 380.5 940.5 366.2 938.8 349.6 Q 934.2 302.2 924 261.2 Q 922.3 254.2 915.3 230.5 Q 914.9 229.4 910.2 215.2 Q 907.2 206.2 906.5 199.5 C 906.1 194.5 906.7 178.4 912.5 176.2 Q 914.1 175.5 915.5 175.6 Q 959.1 178.9 990.3 184.9 Q 1012.1 189.2 1044.2 199.7 C 1079.5 211.2 1113.3 229.3 1140.8 254.4 Q 1170.9 281.8 1191.9 317.6 C 1211.5 351 1220.9 388.3 1212.5 427 C 1211.4 432 1207.6 439.9 1203.1 443.5 C 1198 447.7 1187.8 449.8 1181.5 449.1 Q 1179 448.8 1169.6 446.1 Q 1146.5 439.5 1123.2 433.8 Q 1075.3 421.9 1029.5 425.5 Q 993.5 428.4 963 442.1 Q 948.9 448.5 935.3 460.8 Q 932.3 463.5 926.3 471.8 A 1.5 1.5 0 0 1 925.5 472.4 Q 920.5 473.8 915.4 473.4 A 1.2 1.2 -14.7 0 1 914.6 472.9 C 911.9 469 913 460.8 914.3 456.7 Q 915.2 453.7 919.2 447.3 Z M 1112.3 261 C 1097.6 249.9 1080.8 240.9 1063.9 233.7 Q 1021.3 215.3 975.5 207.7 Q 950.5 203.5 925 201.2 A 0.6 0.6 0 0 0 924.4 202.1 Q 925.4 203.6 926 205.5 C 931.8 224.4 937.5 243.5 941.7 262.8 Q 949.8 299.6 953.9 337.1 C 956.2 358.6 955.5 379.1 952.2 401 Q 950.1 414.2 947.2 424 Q 947.1 424.4 947.5 424.2 Q 973.1 410.8 1001.5 405.1 Q 1031.3 399.1 1061.6 400.2 Q 1093.9 401.4 1120.2 407.6 Q 1138.3 411.8 1178.5 423.2 C 1182.9 424.4 1186.3 425.4 1190.8 424.1 C 1197.2 422.3 1199.7 416 1199.9 409.7 C 1201 380 1191.4 353.4 1174.9 328.1 Q 1149.4 289 1112.3 261 Z"
/>
<path fill="#353336" d="M 1335.7 430.4 Q 1341.5 418.9 1342.8 407.1 C 1343.2 403.4 1343.7 400.9 1345 397.8 A 1.3 1.3 0 0 1 1347 397.4 C 1349.8 399.7 1349.9 404.8 1349.3 409 Q 1346 430.8 1333.9 447.7 C 1326.1 458.7 1316 464.6 1302.7 471.8 Q 1294.3 476.4 1285.4 480.3 Q 1283 481.4 1280.4 481.2 Q 1279.9 481.2 1279.7 480.8 Q 1278.2 476.4 1280.3 473.5 Q 1281.5 471.9 1285.8 470 Q 1299 464.3 1311.2 456.7 C 1322.9 449.4 1329.7 442.3 1335.7 430.4 Z"
/>
<path fill="#353336" d="M 537.6 411.3 C 539.6 410.4 544.6 407.9 545.6 411.7 Q 546.5 415 545.3 418.3 Q 545.2 418.8 544.7 418.9 C 532.7 421.8 523 430.8 524.5 444 C 525.7 454.6 530.8 465 536.6 473.7 Q 537.6 475.3 536.8 478.3 Q 536.3 480.1 536.3 480.3 C 535.4 481.8 532.7 482 531.6 480.4 C 516.8 459.5 507.8 425.6 537.6 411.3 Z"
/>
<path fill="#353336" d="M 1137.8 499.8 C 1137.4 497.5 1137.5 491.5 1141 491.2 Q 1146.3 490.9 1151.5 490.3 Q 1186.1 486.2 1205.8 484.1 Q 1209.7 483.7 1216.5 483.4 C 1219.8 483.2 1222.3 482.6 1222.5 486.8 Q 1222.6 489.3 1221.9 491.6 A 1.5 1.5 -84.4 0 1 1220.6 492.8 Q 1181.5 496.3 1142.5 501.1 Q 1140.9 501.3 1138.4 500.5 Q 1137.9 500.3 1137.8 499.8 Z"
/>
<path fill="#353336" d="M 1072.1 503.2 A 2.2 2.2 0 0 1 1070.1 505.6 L 1036.2 508.9 A 4.1 3.9 -5.6 0 1 1031.8 505.5 L 1031.6 503.6 A 4.1 3.9 -5.6 0 1 1035.2 499.4 L 1069.2 496 A 2.2 2.2 0 0 1 1071.6 498.1 L 1072.1 503.2 Z"
/>
<path fill="#353336" d="M 166 657.8 A 24.4 23.7 107 0 1 150.4 627.5 A 24.4 23.7 107 0 1 180.2 611.2 A 24.4 23.7 107 0 1 195.8 641.4 A 24.4 23.7 107 0 1 166 657.8 Z M 193 634 A 19.9 18.9 -1.3 0 0 172.7 615.6 A 19.9 18.9 -1.3 0 0 153.3 634.9 A 19.9 18.9 -1.3 0 0 173.6 653.4 A 19.9 18.9 -1.3 0 0 193 634 Z"
/>
<path fill="#353336" d="M 119.5 656.7 C 103.5 655.1 105.4 638 114.3 629.5 C 123.9 620.5 140 628.1 140.1 640.9 C 140.1 651.7 129.1 657.7 119.5 656.7 Z M 111.6 642.9 C 109.6 654.8 130.8 653 135.2 645.2 C 138.8 638.8 131.6 631.7 125.5 630.9 C 118.2 630.1 112.7 636 111.6 642.9 Z"
/>
<path fill="#353336" d="M 969.4 676 Q 967.1 670.3 961.6 662.6 Q 952.6 650 942.6 638.1 C 939.9 634.8 939.8 632.3 941.7 628.6 Q 942.8 626.5 944.7 627.8 Q 947.3 629.5 951.1 634.4 Q 960.1 646 968.3 658.2 Q 978.1 672.7 980.8 690 C 981.3 692.9 980.5 699.7 975.9 696.8 A 1.4 1.4 7.2 0 1 975.3 696.1 Q 974.5 693.9 974 690.5 Q 973.2 685.5 969.4 676 Z"
/>
<path fill="#353336" d="M 587.9 700.1 L 589 703.3 A 1.1 1 -44.2 0 1 589 704.1 C 587.7 707.4 587.6 711.3 587 713.9 Q 584.7 724 579.8 733.1 C 576.9 738.6 575 744.8 571.4 750 Q 550.8 780.1 516 791.3 C 512.2 792.5 508 792.3 504 793.2 C 501.3 793.8 499.6 796.2 496.1 794.4 Q 495.7 794.1 495.2 794.2 Q 488.3 795.6 481.2 795.8 C 478.5 795.9 476 795.1 473.2 794.8 Q 472.7 794.8 472.3 794.4 Q 470.5 792.9 468.7 793.2 Q 464.3 793.9 461.7 793.3 C 458.5 792.5 454.1 790.9 450.3 788.9 Q 448.2 787.8 445.3 786.5 C 439 783.6 435 778.9 429.8 774.6 C 424.5 770.2 422 764.1 418.8 758.6 Q 417.8 756.8 417.3 754.2 C 416.8 751.6 415.6 749.8 415.4 747.2 Q 414.8 739 414.9 730.9 Q 414.9 729.6 415.8 727.3 C 416.5 725.1 415.9 722.9 416.3 720.9 Q 418.8 708.2 424.5 696.5 C 425.4 694.5 426.9 693 427.8 691.2 C 430.2 686.2 433.8 682.8 436.2 678 Q 438.7 673.1 442.8 669.4 Q 445.7 666.7 447.6 664.5 Q 452.2 659.4 458.2 655.8 C 460.6 654.4 462.3 652.1 464.9 650.7 C 469.9 648 474.9 644.5 480.5 643.2 C 487 641.6 492.7 637.1 499.8 637.3 Q 500.3 637.3 500.8 637 C 503.8 635.2 505.9 636.4 508.8 635.7 Q 513.2 634.6 517.6 633.8 C 519.3 633.5 520.2 634 521.6 634.5 A 1.4 1.4 45.3 0 0 522.5 634.5 Q 524.8 633.7 527.1 634.6 Q 527.6 634.8 528.1 634.7 Q 534.9 633.4 541.4 635.8 C 544.6 637 547.7 636.9 550.5 638.2 C 554.4 640 558.5 640.8 561.9 643 C 570.8 648.8 580 657.6 583.7 667.7 Q 585.3 672.3 587.1 676.7 Q 588 678.9 589 686.5 Q 589 687 588.8 687.5 Q 586.4 691.1 589.3 695.2 Q 591.1 697.7 588.2 699.4 A 0.6 0.6 65.5 0 0 587.9 700.1 Z M 559.3 685.7 C 556 676.5 547.3 682.7 543.5 687 Q 537.8 693.6 540.5 702 C 543.7 712.2 555.8 707.6 559.4 701 C 562.2 695.9 561.3 691.1 559.3 685.7 Z"
/>
<path fill="#353336" d="M 1289 831.2 A 10.3 9.9 -44 0 1 1288.4 845.5 A 10.3 9.9 -44 0 1 1274.1 845.6 A 10.3 9.9 -44 0 1 1274.7 831.3 A 10.3 9.9 -44 0 1 1289 831.2 Z M 1287.7 838 A 6.1 4.7 -3.8 0 0 1281.3 833.7 A 6.1 4.7 -3.8 0 0 1275.5 838.8 A 6.1 4.7 -3.8 0 0 1281.9 843.1 A 6.1 4.7 -3.8 0 0 1287.7 838 Z"
/>
<path fill="#353336" d="M 1264.4 861.7 C 1261.6 866.7 1257.6 873.1 1257.7 878.9 C 1257.8 885 1262.4 891 1262.8 897.6 Q 1263.3 906.1 1257.2 911.4 C 1248.1 919.5 1242.3 909.1 1240.2 901.5 Q 1233.7 877.8 1243 855.5 C 1245.9 848.7 1252.5 842.4 1260.7 844.8 C 1268.9 847.3 1267.9 855.4 1264.4 861.7 Z M 1257.3 866.9 Q 1261.7 858.1 1262.8 855.8 Q 1263.5 854.3 1263 852.4 Q 1262.9 852 1262.5 851.7 C 1257.9 848.2 1253.4 849.3 1249.6 853.3 Q 1246.9 856 1246 858.5 Q 1237.9 879.3 1244.3 900.8 C 1245.2 904.1 1249 911.5 1253.8 908.2 Q 1262.2 902.3 1257.5 892.5 Q 1251.1 879.2 1257.3 866.9 Z"
/>
<path fill="#353336" d="M 60.4 972.3 A 14.6 13.3 79.9 0 1 44.7 960.3 A 14.6 13.3 79.9 0 1 55.3 943.5 A 14.6 13.3 79.9 0 1 70.9 955.6 A 14.6 13.3 79.9 0 1 60.4 972.3 Z M 66 963.2 A 9.7 8.9 33.4 0 0 62.8 950.4 A 9.7 8.9 33.4 0 0 49.8 952.5 A 9.7 8.9 33.4 0 0 53 965.3 A 9.7 8.9 33.4 0 0 66 963.2 Z"
/>
<path fill="#353336" d="M 122.2 991.1 C 133.7 993.6 143.4 981.1 150.5 974.1 Q 155.3 969.4 158.8 968.1 C 167.5 964.6 174.7 971.3 175.7 979.6 C 176.8 987.6 171.1 994.2 164.9 998.6 C 140.3 1016.3 107.1 1016.6 83 999.1 Q 70.8 990.1 76.1 978.1 Q 78.9 971.7 83.7 969.2 C 90 966.1 95.1 969 100 973.6 C 106.1 979.4 113.3 989.3 122.2 991.1 Z M 136 993.5 C 127.1 999.3 116.9 996.8 109.4 989.8 Q 106.3 987 98.7 979.1 C 92.3 972.5 83.5 971 79.1 980.6 C 76.7 985.9 81.1 991.7 85.2 994.5 C 109.2 1010.9 138.4 1010.5 162.5 994.5 C 168.4 990.6 176.7 982.7 168.9 975.2 Q 163.5 969.9 156.2 975.5 C 148.8 981.2 143.2 988.8 136 993.5 Z"
/>
<path fill="#353336" d="M 557.9 1122.4 Q 562.2 1112.6 563.4 1101.1 Q 563.6 1099.5 565.5 1096.6 Q 565.8 1096.2 566.3 1096.2 C 574 1097 565.5 1122 563.9 1126.1 Q 556.6 1144.4 536.8 1150.4 Q 535.3 1150.9 533.5 1150.3 Q 533 1150.2 532.9 1149.7 Q 532.1 1145.8 533.8 1142.1 A 1.5 1.5 0 0 1 534.7 1141.4 C 545.2 1137.6 553.3 1133.1 557.9 1122.4 Z"
/>
<path fill="#353336" d="M 1387.9 1203 C 1375.1 1197.4 1353.8 1178.1 1366.2 1163.1 C 1368.9 1159.8 1373.4 1157.3 1377.5 1158.9 C 1382.2 1160.8 1385.9 1168.6 1388.8 1172.9 Q 1393.7 1180.5 1402.2 1179.8 C 1408.9 1179.2 1415.9 1177.4 1418.7 1184.8 C 1422 1193.2 1418.7 1204.2 1408.7 1206 Q 1398.8 1207.7 1387.9 1203 Z M 1368.3 1178.7 Q 1379.1 1197.1 1399.4 1200.5 C 1407.4 1201.9 1416.1 1201.1 1415.9 1190.9 C 1415.8 1181.5 1406.1 1185 1400.4 1185 C 1387.9 1184.8 1385.2 1174.3 1379.1 1166.5 Q 1375.4 1161.8 1371 1164.8 Q 1363.3 1170 1368.3 1178.7 Z"
/>
<path fill="#353336" d="M 547.6 1256.9 C 556 1254.3 568.7 1248.3 568.2 1237.6 Q 568 1233.6 566.1 1227.7 C 565.1 1224.3 565.6 1221.6 567.5 1219 A 0.8 0.8 0 0 1 568.5 1218.7 C 571.5 1220.1 571.7 1222.2 572.6 1224.9 C 578.1 1241.8 572.6 1256.5 556 1263.7 C 552.5 1265.2 549.7 1266.4 546.3 1266.4 A 1.3 1.3 84.3 0 1 545 1265.4 C 544.6 1263.2 544.8 1257.7 547.6 1256.9 Z"
/>
</svg>
